<svg version="1.1" viewBox="0.0 0.0 740.6272965879265 332.7034120734908" fill="none" stroke="none" stroke-linecap="square" stroke-miterlimit="10" xmlns:xlink="http://www.w3.org/1999/xlink" xmlns="http://www.w3.org/2000/svg"><clipPath id="p.0"><path d="m0 0l740.6273 0l0 332.7034l-740.6273 0l0 -332.7034z" clip-rule="nonzero"/></clipPath><g clip-path="url(#p.0)"><path fill="#000000" fill-opacity="0.0" d="m0 0l740.6273 0l0 332.7034l-740.6273 0z" fill-rule="evenodd"/><path fill="#f3f3f3" d="m375.84357 64.06036l360.9134 0l0 202.23624l-360.9134 0z" fill-rule="evenodd"/><path stroke="#000000" stroke-width="1.0" stroke-linejoin="round" stroke-linecap="butt" d="m375.84357 64.06036l360.9134 0l0 202.23624l-360.9134 0z" fill-rule="evenodd"/><path fill="#f3f3f3" d="m26.380577 64.06036l318.89764 0l0 202.23624l-318.89764 0z" fill-rule="evenodd"/><path stroke="#000000" stroke-width="1.0" stroke-linejoin="round" stroke-linecap="butt" d="m26.380577 64.06036l318.89764 0l0 202.23624l-318.89764 0z" fill-rule="evenodd"/><path fill="#000000" fill-opacity="0.0" d="m34.49265 111.51286l39.14961 0l0 29.574799l-39.14961 0z" fill-rule="evenodd"/><path fill="#000000" d="m44.008274 120.78526l6.578125 0l0 1.765625l-2.21875 0l0 7.84375l2.21875 0l0 1.765625l-6.578125 0l0 -1.765625l2.15625 0l0 -7.84375l-2.15625 0l0 -1.765625zm12.8828125 8.1875l2.140625 -8.1875l2.421875 0l-3.4375 11.375l-2.234375 0l-3.4375 -11.375l2.421875 0l2.125 8.1875z" fill-rule="nonzero"/><path fill="#000000" fill-opacity="0.0" d="m90.04462 64.062996l30.330711 0l0 29.574799l-30.330711 0z" fill-rule="evenodd"/><path fill="#000000" d="m105.377945 81.6105l1.859375 -2.640625l2.34375 0l-2.84375 4.140625l2.9375 4.3125l-2.34375 0l-1.9375 -2.765625l-1.9375 2.765625l-2.34375 0l2.9375 -4.3125l-2.828125 -4.140625l2.328125 0l1.828125 2.640625z" fill-rule="nonzero"/><path fill="#000000" fill-opacity="0.0" d="m37.406555 162.37796l20.566929 0l0 29.228333l-20.566929 0z" fill-rule="evenodd"/><path fill="#000000" d="m49.82843 178.18025l-1.203125 1.3125l0 3.359375l-2.203125 0l0 -11.375l2.203125 0l0 5.203125l1.03125 -1.390625l2.765625 -3.8125l2.6875 0l-3.828125 5.03125l3.96875 6.34375l-2.609375 0l-2.8125 -4.671875z" fill-rule="nonzero"/><path fill="#cfe2f3" d="m78.53596 162.20053l53.354332 0l0 29.574799l-53.354332 0z" fill-rule="evenodd"/><path stroke="#000000" stroke-width="1.0" stroke-linejoin="round" stroke-linecap="butt" d="m78.53596 162.20053l53.354332 0l0 29.574799l-53.354332 0z" fill-rule="evenodd"/><path fill="#000000" d="m86.50471 182.84793l4.40625 -11.453125l1.640625 0l4.6875 11.453125l-1.734375 0l-1.328125 -3.46875l-4.796875 0l-1.25 3.46875l-1.625 0zm3.3125 -4.703125l3.890625 0l-1.203125 -3.171875q-0.546875 -1.453125 -0.8125 -2.375q-0.21875 1.09375 -0.609375 2.1875l-1.265625 3.359375zm8.65625 4.703125l0 -11.453125l8.28125 0l0 1.34375l-6.765625 0l0 3.515625l6.34375 0l0 1.34375l-6.34375 0l0 3.890625l7.03125 0l0 1.359375l-8.546875 0zm10.125 -3.6875l1.4375 -0.125q0.09375 0.859375 0.46875 1.421875q0.375 0.546875 1.15625 0.890625q0.78125 0.328125 1.75 0.328125q0.875 0 1.53125 -0.25q0.671875 -0.265625 0.984375 -0.703125q0.328125 -0.453125 0.328125 -0.984375q0 -0.546875 -0.3125 -0.9375q-0.3125 -0.40625 -1.03125 -0.6875q-0.453125 -0.171875 -2.03125 -0.546875q-1.578125 -0.390625 -2.21875 -0.71875q-0.8125 -0.4375 -1.21875 -1.0625q-0.40625 -0.640625 -0.40625 -1.4375q0 -0.859375 0.484375 -1.609375q0.5 -0.765625 1.4375 -1.15625q0.953125 -0.390625 2.109375 -0.390625q1.28125 0 2.25 0.421875q0.96875 0.40625 1.484375 1.203125q0.53125 0.796875 0.578125 1.796875l-1.453125 0.109375q-0.125 -1.078125 -0.796875 -1.625q-0.671875 -0.5625 -2.0 -0.5625q-1.375 0 -2.0 0.5q-0.625 0.5 -0.625 1.21875q0 0.609375 0.4375 1.015625q0.4375 0.390625 2.28125 0.8125q1.859375 0.421875 2.546875 0.734375q1.0 0.453125 1.46875 1.171875q0.484375 0.703125 0.484375 1.625q0 0.90625 -0.53125 1.71875q-0.515625 0.8125 -1.5 1.265625q-0.984375 0.453125 -2.203125 0.453125q-1.5625 0 -2.609375 -0.453125q-1.046875 -0.46875 -1.65625 -1.375q-0.59375 -0.90625 -0.625 -2.0625z" fill-rule="nonzero"/><path fill="#000000" fill-opacity="0.0" d="m57.973484 176.99213l20.566929 0" fill-rule="evenodd"/><path stroke="#000000" stroke-width="1.0" stroke-linejoin="round" stroke-linecap="butt" d="m57.973488 176.99213l14.566925 0" fill-rule="evenodd"/><path fill="#000000" stroke="#000000" stroke-width="1.0" stroke-linecap="butt" d="m72.54041 178.64386l4.538101 -1.6517334l-4.538101 -1.6517334z" fill-rule="evenodd"/><path fill="#000000" fill-opacity="0.0" d="m105.2084 133.90656l0 28.283478" fill-rule="evenodd"/><path stroke="#000000" stroke-width="1.0" stroke-linejoin="round" stroke-linecap="butt" d="m105.2084 133.90656l0 22.283463" fill-rule="evenodd"/><path fill="#000000" stroke="#000000" stroke-width="1.0" stroke-linecap="butt" d="m103.55666 156.19002l1.6517334 4.538101l1.6517334 -4.538101z" fill-rule="evenodd"/><path fill="#cfe2f3" d="m96.15328 126.30026l0 0c0 -4.200844 4.0541153 -7.6063004 9.055115 -7.6063004l0 0c5.001007 0 9.055122 3.4054565 9.055122 7.6063004l0 0c0 4.200836 -4.0541153 7.6062927 -9.055122 7.6062927l0 0c-5.0009995 0 -9.055115 -3.4054565 -9.055115 -7.6062927z" fill-rule="evenodd"/><path fill="#000000" fill-opacity="0.0" d="m105.2084 118.69396l0 15.212593m-9.055115 -7.6062927l18.110237 0" fill-rule="evenodd"/><path fill="#000000" fill-opacity="0.0" d="m96.15328 126.30026l0 0c0 -4.200844 4.0541153 -7.6063004 9.055115 -7.6063004l0 0c5.001007 0 9.055122 3.4054565 9.055122 7.6063004l0 0c0 4.200836 -4.0541153 7.6062927 -9.055122 7.6062927l0 0c-5.0009995 0 -9.055115 -3.4054565 -9.055115 -7.6062927z" fill-rule="evenodd"/><path stroke="#000000" stroke-width="1.0" stroke-linejoin="round" stroke-linecap="butt" d="m105.2084 118.69396l0 15.212593m-9.055115 -7.6062927l18.110237 0" fill-rule="evenodd"/><path stroke="#000000" stroke-width="1.0" stroke-linejoin="round" stroke-linecap="butt" d="m96.15328 126.30026l0 0c0 -4.200844 4.0541153 -7.6063004 9.055115 -7.6063004l0 0c5.001007 0 9.055122 3.4054565 9.055122 7.6063004l0 0c0 4.200836 -4.0541153 7.6062927 -9.055122 7.6062927l0 0c-5.0009995 0 -9.055115 -3.4054565 -9.055115 -7.6062927z" fill-rule="evenodd"/><path fill="#000000" fill-opacity="0.0" d="m73.64226 126.30026l22.519684 0" fill-rule="evenodd"/><path stroke="#000000" stroke-width="1.0" stroke-linejoin="round" stroke-linecap="butt" d="m73.64226 126.300255l16.519684 0" fill-rule="evenodd"/><path fill="#000000" stroke="#000000" stroke-width="1.0" stroke-linecap="butt" d="m90.16194 127.95199l4.5380936 -1.6517334l-4.5380936 -1.6517258z" fill-rule="evenodd"/><path fill="#000000" fill-opacity="0.0" d="m105.20998 93.637794l0 25.07087" fill-rule="evenodd"/><path stroke="#000000" stroke-width="1.0" stroke-linejoin="round" stroke-linecap="butt" d="m105.20998 93.637794l0 19.07087" fill-rule="evenodd"/><path fill="#000000" stroke="#000000" stroke-width="1.0" stroke-linecap="butt" d="m103.55824 112.708664l1.6517334 4.5380936l1.6517334 -4.5380936z" fill-rule="evenodd"/><path fill="#000000" fill-opacity="0.0" d="m131.89029 176.98793l20.850388 -0.4409485" fill-rule="evenodd"/><path stroke="#000000" stroke-width="1.0" stroke-linejoin="round" stroke-linecap="butt" d="m131.89029 176.98792l14.85173 -0.31407166" fill-rule="evenodd"/><path fill="#000000" stroke="#000000" stroke-width="1.0" stroke-linecap="butt" d="m146.77695 178.3252l4.5021515 -1.7473145l-4.572006 -1.5554047z" fill-rule="evenodd"/><path fill="#000000" fill-opacity="0.0" d="m152.75586 161.77165l16.472443 0l0 29.574799l-16.472443 0z" fill-rule="evenodd"/><path fill="#000000" d="m165.84961 174.6004l0 2.078125l3.15625 0l0 1.59375l-3.15625 0l0 3.640625q0 0.453125 0.09375 0.765625q0.109375 0.3125 0.296875 0.5q0.203125 0.171875 0.484375 0.25q0.28125 0.078125 0.625 0.078125q0.25 0 0.5 -0.015625q0.265625 -0.03125 0.5 -0.0625q0.25 -0.03125 0.453125 -0.0625q0.203125 -0.046875 0.359375 -0.09375l0.203125 1.5q-0.21875 0.125 -0.53125 0.234375q-0.296875 0.09375 -0.640625 0.15625q-0.34375 0.0625 -0.71875 0.09375q-0.375 0.046875 -0.734375 0.046875q-0.6875 0 -1.265625 -0.1875q-0.5625 -0.1875 -0.96875 -0.578125q-0.390625 -0.390625 -0.609375 -0.984375q-0.21875 -0.59375 -0.21875 -1.4375l0 -3.84375l-1.9375 0l0 -1.59375l1.9375 0l0 -2.078125l2.171875 0z" fill-rule="nonzero"/><path fill="#000000" fill-opacity="0.0" d="m399.3853 113.94068l39.149597 0l0 29.574806l-39.149597 0z" fill-rule="evenodd"/><path fill="#000000" d="m408.90094 123.21308l6.578125 0l0 1.765625l-2.21875 0l0 7.8437576l2.21875 0l0 1.765625l-6.578125 0l0 -1.765625l2.15625 0l0 -7.8437576l-2.15625 0l0 -1.765625zm12.8828125 8.187508l2.140625 -8.187508l2.421875 0l-3.4375 11.375008l-2.234375 0l-3.4375 -11.375008l2.421875 0l2.125 8.187508z" fill-rule="nonzero"/><path fill="#000000" fill-opacity="0.0" d="m442.0538 66.48766l56.094482 0l0 29.574806l-56.094482 0z" fill-rule="evenodd"/><path fill="#000000" d="m470.269 84.035164l1.859375 -2.640625l2.34375 0l-2.84375 4.140625l2.9375 4.3125l-2.34375 0l-1.9375 -2.765625l-1.9375 2.765625l-2.34375 0l2.9375 -4.3125l-2.828125 -4.140625l2.328125 0l1.828125 2.640625z" fill-rule="nonzero"/><path fill="#000000" fill-opacity="0.0" d="m392.5349 164.80472l30.330719 0l0 29.228348l-30.330719 0z" fill-rule="evenodd"/><path fill="#000000" d="m404.9568 180.60703l-1.203125 1.3125l0 3.359375l-2.203125 0l0 -11.375l2.203125 0l0 5.203125l1.03125 -1.390625l2.765625 -3.8125l2.6875 0l-3.828125 5.03125l3.96875 6.34375l-2.609375 0l-2.8125 -4.671875z" fill-rule="nonzero"/><path fill="#cfe2f3" d="m443.42862 164.62834l53.35431 0l0 29.574814l-53.35431 0z" fill-rule="evenodd"/><path stroke="#000000" stroke-width="1.0" stroke-linejoin="round" stroke-linecap="butt" d="m443.42862 164.62834l53.35431 0l0 29.574814l-53.35431 0z" fill-rule="evenodd"/><path fill="#000000" d="m451.39737 185.27574l4.40625 -11.453125l1.640625 0l4.6875 11.453125l-1.734375 0l-1.328125 -3.46875l-4.796875 0l-1.25 3.46875l-1.625 0zm3.3125 -4.703125l3.890625 0l-1.203125 -3.171875q-0.546875 -1.453125 -0.8125 -2.375q-0.21875 1.09375 -0.609375 2.1875l-1.265625 3.359375zm8.65625 4.703125l0 -11.453125l8.28125 0l0 1.34375l-6.765625 0l0 3.515625l6.34375 0l0 1.34375l-6.34375 0l0 3.890625l7.03125 0l0 1.359375l-8.546875 0zm10.125 -3.6875l1.4375 -0.125q0.09375 0.859375 0.46875 1.421875q0.375 0.546875 1.15625 0.890625q0.78125 0.328125 1.75 0.328125q0.875 0 1.53125 -0.25q0.671875 -0.265625 0.984375 -0.703125q0.328125 -0.453125 0.328125 -0.984375q0 -0.546875 -0.3125 -0.9375q-0.3125 -0.40625 -1.03125 -0.6875q-0.453125 -0.171875 -2.03125 -0.546875q-1.578125 -0.390625 -2.21875 -0.71875q-0.8125 -0.4375 -1.21875 -1.0625q-0.40625 -0.640625 -0.40625 -1.4375q0 -0.859375 0.484375 -1.609375q0.5 -0.765625 1.4375 -1.15625q0.953125 -0.390625 2.109375 -0.390625q1.28125 0 2.25 0.421875q0.96875 0.40625 1.484375 1.203125q0.53125 0.796875 0.578125 1.796875l-1.453125 0.109375q-0.125 -1.078125 -0.796875 -1.625q-0.671875 -0.5625 -2.0 -0.5625q-1.375 0 -2.0 0.5q-0.625 0.5 -0.625 1.21875q0 0.609375 0.4375 1.015625q0.4375 0.390625 2.28125 0.8125q1.859375 0.421875 2.546875 0.734375q1.0 0.453125 1.46875 1.171875q0.484375 0.703125 0.484375 1.625q0 0.90625 -0.53125 1.71875q-0.515625 0.8125 -1.5 1.265625q-0.984375 0.453125 -2.203125 0.453125q-1.5625 0 -2.609375 -0.453125q-1.046875 -0.46875 -1.65625 -1.375q-0.59375 -0.90625 -0.625 -2.0625z" fill-rule="nonzero"/><path fill="#000000" fill-opacity="0.0" d="m422.86563 179.4189l20.566925 0" fill-rule="evenodd"/><path stroke="#000000" stroke-width="1.0" stroke-linejoin="round" stroke-linecap="butt" d="m422.8656 179.4189l14.566925 0" fill-rule="evenodd"/><path fill="#000000" stroke="#000000" stroke-width="1.0" stroke-linecap="butt" d="m437.43253 181.07063l4.5381165 -1.6517334l-4.5381165 -1.6517334z" fill-rule="evenodd"/><path fill="#000000" fill-opacity="0.0" d="m470.10104 136.33438l0 28.283463" fill-rule="evenodd"/><path stroke="#000000" stroke-width="1.0" stroke-linejoin="round" stroke-linecap="butt" d="m470.10104 136.33438l0 22.283463" fill-rule="evenodd"/><path fill="#000000" stroke="#000000" stroke-width="1.0" stroke-linecap="butt" d="m468.4493 158.61784l1.6517334 4.538101l1.6517334 -4.538101z" fill-rule="evenodd"/><path fill="#cfe2f3" d="m461.04593 128.72809l0 0c0 -4.200844 4.0541077 -7.6063004 9.055115 -7.6063004l0 0c5.001007 0 9.055115 3.4054565 9.055115 7.6063004l0 0c0 4.200836 -4.0541077 7.6062927 -9.055115 7.6062927l0 0c-5.001007 0 -9.055115 -3.4054565 -9.055115 -7.6062927z" fill-rule="evenodd"/><path fill="#000000" fill-opacity="0.0" d="m470.10104 121.12179l0 15.212593m-9.055115 -7.6062927l18.11023 0" fill-rule="evenodd"/><path fill="#000000" fill-opacity="0.0" d="m461.04593 128.72809l0 0c0 -4.200844 4.0541077 -7.6063004 9.055115 -7.6063004l0 0c5.001007 0 9.055115 3.4054565 9.055115 7.6063004l0 0c0 4.200836 -4.0541077 7.6062927 -9.055115 7.6062927l0 0c-5.001007 0 -9.055115 -3.4054565 -9.055115 -7.6062927z" fill-rule="evenodd"/><path stroke="#000000" stroke-width="1.0" stroke-linejoin="round" stroke-linecap="butt" d="m470.10104 121.12179l0 15.212593m-9.055115 -7.6062927l18.11023 0" fill-rule="evenodd"/><path stroke="#000000" stroke-width="1.0" stroke-linejoin="round" stroke-linecap="butt" d="m461.04593 128.72809l0 0c0 -4.200844 4.0541077 -7.6063004 9.055115 -7.6063004l0 0c5.001007 0 9.055115 3.4054565 9.055115 7.6063004l0 0c0 4.200836 -4.0541077 7.6062927 -9.055115 7.6062927l0 0c-5.001007 0 -9.055115 -3.4054565 -9.055115 -7.6062927z" fill-rule="evenodd"/><path fill="#000000" fill-opacity="0.0" d="m438.5349 128.72809l22.519684 0" fill-rule="evenodd"/><path stroke="#000000" stroke-width="1.0" stroke-linejoin="round" stroke-linecap="butt" d="m438.5349 128.72807l16.519684 0" fill-rule="evenodd"/><path fill="#000000" stroke="#000000" stroke-width="1.0" stroke-linecap="butt" d="m455.0546 130.3798l4.538086 -1.6517334l-4.538086 -1.6517258z" fill-rule="evenodd"/><path fill="#000000" fill-opacity="0.0" d="m470.10104 96.06247l0 25.070862" fill-rule="evenodd"/><path stroke="#000000" stroke-width="1.0" stroke-linejoin="round" stroke-linecap="butt" d="m470.10104 96.06247l0 19.07087" fill-rule="evenodd"/><path fill="#000000" stroke="#000000" stroke-width="1.0" stroke-linecap="butt" d="m468.4493 115.13334l1.6517334 4.5380936l1.6517334 -4.5380936z" fill-rule="evenodd"/><path fill="#000000" fill-opacity="0.0" d="m597.62726 66.49344l96.37799 0l0 29.574806l-96.37799 0z" fill-rule="evenodd"/><path fill="#000000" d="m632.1483 81.65406l1.390625 -1.984375l1.75 0l-2.125 3.109375l2.203125 3.234375l-1.765625 0l-1.453125 -2.078125l-1.453125 2.078125l-1.765625 0l2.203125 -3.234375l-2.109375 -3.109375l1.75 0l1.375 1.984375zm8.013672 -3.765625q0 0.296875 -0.078125 0.625q-0.078125 0.3125 -0.234375 0.609375q-0.140625 0.296875 -0.34375 0.578125q-0.1875 0.265625 -0.421875 0.46875l-0.734375 -0.453125q0.21875 -0.390625 0.359375 -0.828125q0.140625 -0.4375 0.140625 -1.0l0 -1.015625l1.3125 0l0 1.015625z" fill-rule="nonzero"/><path fill="#000000" d="m646.4569 81.84156l0 1.734375l-0.828125 0l0 -1.734375l-1.734375 0l0 -0.828125l1.734375 0l0 -1.734375l0.828125 0l0 1.734375l1.734375 0l0 0.828125l-1.734375 0zm-0.390625 1.65625q0.828125 0 1.46875 -0.625q0.578125 -0.59375 0.578125 -1.421875q0 -0.828125 -0.578125 -1.421875q-0.640625 -0.625 -1.46875 -0.625q-0.828125 0 -1.46875 0.625q-0.578125 0.59375 -0.578125 1.421875q0 0.828125 0.578125 1.421875q0.640625 0.625 1.46875 0.625zm2.09375 -0.09375q-0.90625 0.921875 -2.09375 0.921875q-1.1875 0 -2.046875 -0.875q-0.828125 -0.8125 -0.828125 -2.0q0 -1.1875 0.78125 -1.953125q0.90625 -0.921875 2.09375 -0.921875q1.1875 0 2.046875 0.875q0.828125 0.8125 0.828125 2.0q0 1.1875 -0.78125 1.953125z" fill-rule="nonzero"/><path fill="#000000" d="m659.82996 78.12281l0 1.546875l2.375 0l0 1.203125l-2.375 0l0 2.71875q0 0.359375 0.078125 0.59375q0.078125 0.21875 0.21875 0.359375q0.15625 0.140625 0.359375 0.203125q0.21875 0.046875 0.46875 0.046875q0.1875 0 0.375 -0.015625q0.203125 -0.015625 0.375 -0.03125q0.1875 -0.03125 0.34375 -0.0625q0.15625 -0.03125 0.265625 -0.0625l0.15625 1.125q-0.171875 0.09375 -0.40625 0.171875q-0.21875 0.0625 -0.484375 0.109375q-0.25 0.0625 -0.53125 0.078125q-0.265625 0.03125 -0.546875 0.03125q-0.515625 0 -0.9375 -0.140625q-0.421875 -0.140625 -0.734375 -0.421875q-0.296875 -0.296875 -0.46875 -0.734375q-0.15625 -0.453125 -0.15625 -1.078125l0 -2.890625l-1.453125 0l0 -1.203125l1.453125 0l0 -1.546875l1.625 0z" fill-rule="nonzero"/><path fill="#000000" fill-opacity="0.0" d="m568.2499 164.80472l30.330688 0l0 29.228348l-30.330688 0z" fill-rule="evenodd"/><path fill="#000000" d="m580.67175 180.60703l-1.203125 1.3125l0 3.359375l-2.203125 0l0 -11.375l2.203125 0l0 5.203125l1.03125 -1.390625l2.765625 -3.8125l2.6875 0l-3.828125 5.03125l3.96875 6.34375l-2.609375 0l-2.8125 -4.671875z" fill-rule="nonzero"/><path fill="#cfe2f3" d="m619.14355 164.62834l53.35437 0l0 29.574814l-53.35437 0z" fill-rule="evenodd"/><path stroke="#000000" stroke-width="1.0" stroke-linejoin="round" stroke-linecap="butt" d="m619.14355 164.62834l53.35437 0l0 29.574814l-53.35437 0z" fill-rule="evenodd"/><path fill="#000000" d="m627.1123 185.27574l4.40625 -11.453125l1.640625 0l4.6875 11.453125l-1.734375 0l-1.328125 -3.46875l-4.796875 0l-1.25 3.46875l-1.625 0zm3.3125 -4.703125l3.890625 0l-1.203125 -3.171875q-0.546875 -1.453125 -0.8125 -2.375q-0.21875 1.09375 -0.609375 2.1875l-1.265625 3.359375zm8.65625 4.703125l0 -11.453125l8.28125 0l0 1.34375l-6.765625 0l0 3.515625l6.34375 0l0 1.34375l-6.34375 0l0 3.890625l7.03125 0l0 1.359375l-8.546875 0zm10.125 -3.6875l1.4375 -0.125q0.09375 0.859375 0.46875 1.421875q0.375 0.546875 1.15625 0.890625q0.78125 0.328125 1.75 0.328125q0.875 0 1.53125 -0.25q0.671875 -0.265625 0.984375 -0.703125q0.328125 -0.453125 0.328125 -0.984375q0 -0.546875 -0.3125 -0.9375q-0.3125 -0.40625 -1.03125 -0.6875q-0.453125 -0.171875 -2.03125 -0.546875q-1.578125 -0.390625 -2.21875 -0.71875q-0.8125 -0.4375 -1.21875 -1.0625q-0.40625 -0.640625 -0.40625 -1.4375q0 -0.859375 0.484375 -1.609375q0.5 -0.765625 1.4375 -1.15625q0.953125 -0.390625 2.109375 -0.390625q1.28125 0 2.25 0.421875q0.96875 0.40625 1.484375 1.203125q0.53125 0.796875 0.578125 1.796875l-1.453125 0.109375q-0.125 -1.078125 -0.796875 -1.625q-0.671875 -0.5625 -2.0 -0.5625q-1.375 0 -2.0 0.5q-0.625 0.5 -0.625 1.21875q0 0.609375 0.4375 1.015625q0.4375 0.390625 2.28125 0.8125q1.859375 0.421875 2.546875 0.734375q1.0 0.453125 1.46875 1.171875q0.484375 0.703125 0.484375 1.625q0 0.90625 -0.53125 1.71875q-0.515625 0.8125 -1.5 1.265625q-0.984375 0.453125 -2.203125 0.453125q-1.5625 0 -2.609375 -0.453125q-1.046875 -0.46875 -1.65625 -1.375q-0.59375 -0.90625 -0.625 -2.0625z" fill-rule="nonzero"/><path fill="#000000" fill-opacity="0.0" d="m598.58057 179.4189l20.566956 0" fill-rule="evenodd"/><path stroke="#000000" stroke-width="1.0" stroke-linejoin="round" stroke-linecap="butt" d="m598.58057 179.4189l14.566956 0" fill-rule="evenodd"/><path fill="#000000" stroke="#000000" stroke-width="1.0" stroke-linecap="butt" d="m613.1475 181.07063l4.538086 -1.6517334l-4.538086 -1.6517334z" fill-rule="evenodd"/><path fill="#000000" fill-opacity="0.0" d="m645.81604 136.33438l0 28.283463" fill-rule="evenodd"/><path stroke="#000000" stroke-width="1.0" stroke-linejoin="round" stroke-linecap="butt" d="m645.81604 136.33438l0 22.283463" fill-rule="evenodd"/><path fill="#000000" stroke="#000000" stroke-width="1.0" stroke-linecap="butt" d="m644.1643 158.61784l1.6517334 4.538101l1.6517334 -4.538101z" fill-rule="evenodd"/><path fill="#cfe2f3" d="m636.76086 128.72809l0 0c0 -4.200844 4.054138 -7.6063004 9.055176 -7.6063004l0 0c5.0009766 0 9.055115 3.4054565 9.055115 7.6063004l0 0c0 4.200836 -4.054138 7.6062927 -9.055115 7.6062927l0 0c-5.0010376 0 -9.055176 -3.4054565 -9.055176 -7.6062927z" fill-rule="evenodd"/><path fill="#000000" fill-opacity="0.0" d="m645.81604 121.12179l0 15.212593m-9.055176 -7.6062927l18.11029 0" fill-rule="evenodd"/><path fill="#000000" fill-opacity="0.0" d="m636.76086 128.72809l0 0c0 -4.200844 4.054138 -7.6063004 9.055176 -7.6063004l0 0c5.0009766 0 9.055115 3.4054565 9.055115 7.6063004l0 0c0 4.200836 -4.054138 7.6062927 -9.055115 7.6062927l0 0c-5.0010376 0 -9.055176 -3.4054565 -9.055176 -7.6062927z" fill-rule="evenodd"/><path stroke="#000000" stroke-width="1.0" stroke-linejoin="round" stroke-linecap="butt" d="m645.81604 121.12179l0 15.212593m-9.055176 -7.6062927l18.11029 0" fill-rule="evenodd"/><path stroke="#000000" stroke-width="1.0" stroke-linejoin="round" stroke-linecap="butt" d="m636.76086 128.72809l0 0c0 -4.200844 4.054138 -7.6063004 9.055176 -7.6063004l0 0c5.0009766 0 9.055115 3.4054565 9.055115 7.6063004l0 0c0 4.200836 -4.054138 7.6062927 -9.055115 7.6062927l0 0c-5.0010376 0 -9.055176 -3.4054565 -9.055176 -7.6062927z" fill-rule="evenodd"/><path fill="#000000" fill-opacity="0.0" d="m645.8163 96.068245l0 25.039368" fill-rule="evenodd"/><path stroke="#000000" stroke-width="1.0" stroke-linejoin="round" stroke-linecap="butt" d="m645.8163 96.068245l0 19.039368" fill-rule="evenodd"/><path fill="#000000" stroke="#000000" stroke-width="1.0" stroke-linecap="butt" d="m644.16455 115.10761l1.6517334 4.5380936l1.6517334 -4.5380936z" fill-rule="evenodd"/><path fill="#000000" fill-opacity="0.0" d="m672.4979 179.41574l20.566895 0" fill-rule="evenodd"/><path stroke="#000000" stroke-width="1.0" stroke-linejoin="round" stroke-linecap="butt" d="m672.4979 179.41574l14.566895 0" fill-rule="evenodd"/><path fill="#000000" stroke="#000000" stroke-width="1.0" stroke-linecap="butt" d="m687.0648 181.06747l4.538086 -1.6517334l-4.538086 -1.6517334z" fill-rule="evenodd"/><path fill="#000000" fill-opacity="0.0" d="m693.0553 164.6273l42.236267 0l0 29.574799l-42.236267 0z" fill-rule="evenodd"/><path fill="#000000" d="m709.66565 174.74345l0 2.078125l3.15625 0l0 1.59375l-3.15625 0l0 3.640625q0 0.453125 0.09375 0.765625q0.109375 0.3125 0.296875 0.5q0.203125 0.171875 0.484375 0.25q0.28125 0.078125 0.625 0.078125q0.25 0 0.5 -0.015625q0.265625 -0.03125 0.5 -0.0625q0.25 -0.03125 0.453125 -0.0625q0.203125 -0.046875 0.359375 -0.09375l0.203125 1.5q-0.21875 0.125 -0.53125 0.234375q-0.296875 0.09375 -0.640625 0.15625q-0.34375 0.0625 -0.71875 0.09375q-0.375 0.046875 -0.734375 0.046875q-0.6875 0 -1.265625 -0.1875q-0.5625 -0.1875 -0.96875 -0.578125q-0.390625 -0.390625 -0.609375 -0.984375q-0.21875 -0.59375 -0.21875 -1.4375l0 -3.84375l-1.9375 0l0 -1.59375l1.9375 0l0 -2.078125l2.171875 0zm10.5703125 -0.3125q0 0.40625 -0.109375 0.828125q-0.109375 0.421875 -0.3125 0.828125q-0.1875 0.40625 -0.453125 0.765625q-0.25 0.359375 -0.546875 0.640625l-1.0 -0.625q0.296875 -0.5 0.484375 -1.078125q0.203125 -0.59375 0.203125 -1.359375l0 -1.34375l1.734375 0l0 1.34375z" fill-rule="nonzero"/><path fill="#000000" fill-opacity="0.0" d="m496.78293 179.41574l48.581696 0l0 -50.677155l91.38684 0" fill-rule="evenodd"/><path stroke="#000000" stroke-width="1.0" stroke-linejoin="round" stroke-linecap="butt" d="m496.78293 179.41574l48.581696 0l0 -50.67717l85.38684 0" fill-rule="evenodd"/><path fill="#000000" stroke="#000000" stroke-width="1.0" stroke-linecap="butt" d="m630.75146 130.3903l4.538086 -1.6517334l-4.538086 -1.6517258z" fill-rule="evenodd"/><path fill="#000000" fill-opacity="0.0" d="m461.03885 4.250394l180.28348 0l0 29.574802l-180.28348 0z" fill-rule="evenodd"/><path fill="#000000" d="m528.5634 20.239143l-3.65625 0l0 3.53125l-1.65625 0l0 -8.531249l5.765625 0l0 1.343749l-4.109375 0l0 2.3125l3.65625 0l0 1.34375zm1.6230469 0.296875q0 -0.6875 0.1875 -1.265625q0.203125 -0.59375 0.578125 -1.03125q0.390625 -0.4375 0.9375 -0.671875q0.5625 -0.25 1.28125 -0.25q0.71875 0 1.265625 0.25q0.5625 0.234375 0.9375 0.671875q0.390625 0.4375 0.59375 1.03125q0.203125 0.578125 0.203125 1.265625l0 0.125q0 0.703125 -0.203125 1.296875q-0.203125 0.578125 -0.59375 1.015625q-0.375 0.4375 -0.9375 0.6875q-0.546875 0.234375 -1.25 0.234375q-0.71875 0 -1.28125 -0.234375q-0.5625 -0.25 -0.953125 -0.6875q-0.375 -0.4375 -0.578125 -1.015625q-0.1875 -0.59375 -0.1875 -1.296875l0 -0.125zm1.625 0.125q0 0.40625 0.078125 0.75q0.078125 0.34375 0.234375 0.609375q0.171875 0.265625 0.421875 0.421875q0.265625 0.140625 0.640625 0.140625q0.359375 0 0.609375 -0.140625q0.265625 -0.15625 0.421875 -0.421875q0.15625 -0.265625 0.234375 -0.609375q0.078125 -0.34375 0.078125 -0.75l0 -0.125q0 -0.375 -0.078125 -0.71875q-0.078125 -0.359375 -0.234375 -0.609375q-0.15625 -0.265625 -0.421875 -0.421875q-0.25 -0.15625 -0.625 -0.15625q-0.359375 0 -0.625 0.15625q-0.25 0.15625 -0.421875 0.421875q-0.15625 0.25 -0.234375 0.609375q-0.078125 0.34375 -0.078125 0.71875l0 0.125zm10.341797 -3.34375q0.375 0 0.6875 0.046875q0.3125 0.046875 0.5 0.109375l-0.234375 1.625q-0.328125 -0.078125 -0.671875 -0.109375q-0.328125 -0.046875 -0.625 -0.046875q-0.6875 0 -1.109375 0.265625q-0.40625 0.265625 -0.609375 0.75l0 3.8125l-1.625 0l0 -6.34375l1.515625 0l0.078125 1.046875q0.375 -0.546875 0.90625 -0.84375q0.546875 -0.3125 1.1875 -0.3125zm2.4824219 3.234375q0 -0.71875 0.171875 -1.3125q0.1875 -0.609375 0.515625 -1.03125q0.34375 -0.421875 0.8125 -0.65625q0.484375 -0.234375 1.078125 -0.234375q0.5625 0 0.953125 0.1875q0.40625 0.1875 0.6875 0.53125l0.0625 -0.609375l1.484375 0l0 6.140625q0 0.640625 -0.21875 1.140625q-0.21875 0.515625 -0.625 0.859375q-0.390625 0.34375 -0.953125 0.515625q-0.546875 0.1875 -1.21875 0.1875q-0.28125 0 -0.609375 -0.0625q-0.328125 -0.0625 -0.65625 -0.1875q-0.3125 -0.109375 -0.609375 -0.3125q-0.28125 -0.1875 -0.484375 -0.453125l0.734375 -0.984375q0.3125 0.34375 0.703125 0.53125q0.390625 0.1875 0.84375 0.1875q0.6875 0 1.0625 -0.375q0.390625 -0.359375 0.390625 -1.03125l0 -0.359375q-0.28125 0.3125 -0.671875 0.5q-0.375 0.171875 -0.890625 0.171875q-0.59375 0 -1.0625 -0.25q-0.46875 -0.25 -0.8125 -0.671875q-0.328125 -0.421875 -0.515625 -1.015625q-0.171875 -0.59375 -0.171875 -1.28125l0 -0.125zm1.640625 0.125q0 0.390625 0.078125 0.734375q0.078125 0.34375 0.234375 0.609375q0.171875 0.25 0.421875 0.40625q0.25 0.140625 0.609375 0.140625q0.421875 0 0.703125 -0.15625q0.28125 -0.171875 0.4375 -0.46875l0 -2.6875q-0.15625 -0.296875 -0.4375 -0.453125q-0.28125 -0.171875 -0.703125 -0.171875q-0.34375 0 -0.59375 0.15625q-0.25 0.15625 -0.421875 0.421875q-0.15625 0.25 -0.25 0.609375q-0.078125 0.34375 -0.078125 0.734375l0 0.125zm8.810547 3.21875q-0.734375 0 -1.34375 -0.234375q-0.59375 -0.25 -1.015625 -0.65625q-0.421875 -0.421875 -0.65625 -0.984375q-0.234375 -0.5625 -0.234375 -1.203125l0 -0.234375q0 -0.71875 0.21875 -1.3125q0.234375 -0.609375 0.640625 -1.046875q0.421875 -0.4375 0.984375 -0.671875q0.5625 -0.234375 1.21875 -0.234375q0.6875 0 1.21875 0.234375q0.546875 0.21875 0.90625 0.625q0.375 0.40625 0.5625 0.984375q0.203125 0.578125 0.203125 1.28125l0 0.6875l-4.296875 0q0.046875 0.3125 0.1875 0.59375q0.140625 0.265625 0.359375 0.453125q0.234375 0.1875 0.515625 0.296875q0.28125 0.109375 0.625 0.109375q0.25 0 0.484375 -0.046875q0.234375 -0.046875 0.453125 -0.140625q0.21875 -0.09375 0.40625 -0.21875q0.1875 -0.140625 0.328125 -0.328125l0.8125 0.890625q-0.15625 0.203125 -0.40625 0.421875q-0.234375 0.203125 -0.5625 0.375q-0.328125 0.15625 -0.734375 0.25q-0.40625 0.109375 -0.875 0.109375zm-0.203125 -5.265625q-0.265625 0 -0.5 0.09375q-0.21875 0.09375 -0.40625 0.28125q-0.171875 0.1875 -0.296875 0.4375q-0.109375 0.25 -0.15625 0.5625l2.671875 0l0 -0.125q-0.015625 -0.265625 -0.109375 -0.484375q-0.078125 -0.234375 -0.25 -0.40625q-0.15625 -0.171875 -0.40625 -0.265625q-0.234375 -0.09375 -0.546875 -0.09375zm8.873047 -1.3125q0.375 0 0.6875 0.046875q0.3125 0.046875 0.5 0.109375l-0.234375 1.625q-0.328125 -0.078125 -0.671875 -0.109375q-0.328125 -0.046875 -0.625 -0.046875q-0.6875 0 -1.109375 0.265625q-0.40625 0.265625 -0.609375 0.75l0 3.8125l-1.625 0l0 -6.34375l1.515625 0l0.078125 1.046875q0.375 -0.546875 0.90625 -0.84375q0.546875 -0.3125 1.1875 -0.3125zm5.357422 3.796875l0.1875 0.671875l1.6875 -4.359375l1.796875 0l-3.21875 7.296875q-0.109375 0.234375 -0.28125 0.515625q-0.15625 0.28125 -0.40625 0.515625q-0.25 0.25 -0.609375 0.40625q-0.359375 0.171875 -0.859375 0.171875q-0.109375 0 -0.21875 -0.015625q-0.09375 0 -0.1875 -0.015625q-0.09375 -0.015625 -0.1875 -0.046875q-0.09375 -0.015625 -0.203125 -0.046875l0.203125 -1.234375q0.109375 0 0.25 0q0.15625 0.015625 0.25 0.015625q0.203125 0 0.34375 -0.125q0.15625 -0.109375 0.25 -0.25q0.109375 -0.140625 0.171875 -0.265625q0.078125 -0.109375 0.09375 -0.109375l0.390625 -0.734375l-2.671875 -6.078125l1.78125 0l1.4375 3.6875zm6.138672 1.71875q0 -0.234375 0.078125 -0.421875q0.078125 -0.203125 0.21875 -0.34375q0.15625 -0.15625 0.359375 -0.234375q0.21875 -0.078125 0.484375 -0.078125q0.265625 0 0.46875 0.078125q0.21875 0.078125 0.359375 0.234375q0.140625 0.140625 0.21875 0.34375q0.078125 0.1875 0.078125 0.421875q0 0.21875 -0.078125 0.421875q-0.078125 0.1875 -0.21875 0.328125q-0.140625 0.140625 -0.359375 0.21875q-0.203125 0.09375 -0.46875 0.09375q-0.265625 0 -0.484375 -0.09375q-0.203125 -0.078125 -0.359375 -0.21875q-0.140625 -0.140625 -0.21875 -0.328125q-0.078125 -0.203125 -0.078125 -0.421875zm0 -5.0q0 -0.234375 0.078125 -0.421875q0.078125 -0.203125 0.21875 -0.34375q0.15625 -0.15625 0.359375 -0.234375q0.21875 -0.078125 0.484375 -0.078125q0.265625 0 0.46875 0.078125q0.21875 0.078125 0.359375 0.234375q0.140625 0.140625 0.21875 0.34375q0.078125 0.1875 0.078125 0.421875q0 0.21875 -0.078125 0.421875q-0.078125 0.1875 -0.21875 0.328125q-0.140625 0.140625 -0.359375 0.234375q-0.203125 0.078125 -0.46875 0.078125q-0.265625 0 -0.484375 -0.078125q-0.203125 -0.09375 -0.359375 -0.234375q-0.140625 -0.140625 -0.21875 -0.328125q-0.078125 -0.203125 -0.078125 -0.421875z" fill-rule="nonzero"/><path fill="#000000" d="m495.5038 47.41102l1.390625 -1.984375l1.75 0l-2.125 3.109375l2.203125 3.234375l-1.765625 0l-1.453125 -2.078125l-1.453125 2.078125l-1.765625 0l2.203125 -3.234375l-2.109375 -3.109375l1.75 0l1.375 1.984375z" fill-rule="nonzero"/><path fill="#000000" d="m500.73624 56.270393l0 -3.671875l-1.171875 0l0 -0.5625l1.171875 0l0 -0.296875q0 -0.40625 0.109375 -0.703125q0.125 -0.3125 0.34375 -0.515625q0.21875 -0.203125 0.515625 -0.3125q0.3125 -0.109375 0.6875 -0.109375q0.25 0 0.484375 0.046875q0.25 0.046875 0.515625 0.109375l-0.09375 0.59375q-0.15625 -0.046875 -0.375 -0.09375q-0.203125 -0.046875 -0.453125 -0.046875q-0.5 0.015625 -0.765625 0.265625q-0.25 0.25 -0.25 0.765625l0 0.296875l1.625 0l0 0.5625l-1.625 0l0 3.671875l-0.71875 0z" fill-rule="nonzero"/><path fill="#000000" d="m517.44525 47.56727l-5.5469055 0l0 -1.328125l5.5469055 0l0 1.328125zm0 2.53125l-5.5469055 0l0 -1.328125l5.5469055 0l0 1.328125zm11.667969 -2.6875l1.390625 -1.984375l1.75 0l-2.125 3.109375l2.203125 3.234375l-1.765625 0l-1.453125 -2.078125l-1.453125 2.078125l-1.765625 0l2.203125 -3.234375l-2.109375 -3.109375l1.75 0l1.375 1.984375zm14.808594 6.765625l-1.015625 0l0 -10.9375l1.015625 0l0 10.9375zm12.277344 -5.875q0 -0.828125 0.125 -1.546875q0.140625 -0.734375 0.34375 -1.34375q0.21875 -0.625 0.5 -1.140625q0.296875 -0.515625 0.625 -0.90625q0.328125 -0.390625 0.671875 -0.65625q0.34375 -0.28125 0.65625 -0.421875l0.3125 0.890625q-0.328125 0.25 -0.65625 0.671875q-0.328125 0.421875 -0.59375 1.0625q-0.25 0.625 -0.421875 1.46875q-0.15625 0.828125 -0.15625 1.90625l0 0.15625q0 1.078125 0.15625 1.921875q0.171875 0.84375 0.421875 1.46875q0.265625 0.625 0.59375 1.046875q0.328125 0.4375 0.65625 0.6875l-0.3125 0.875q-0.3125 -0.140625 -0.65625 -0.421875q-0.34375 -0.265625 -0.671875 -0.65625q-0.328125 -0.390625 -0.625 -0.90625q-0.28125 -0.5 -0.5 -1.125q-0.203125 -0.625 -0.34375 -1.34375q-0.125 -0.734375 -0.125 -1.5625l0 -0.125zm8.919922 -0.890625l1.390625 -1.984375l1.75 0l-2.125 3.109375l2.203125 3.234375l-1.765625 0l-1.453125 -2.078125l-1.453125 2.078125l-1.765625 0l2.203125 -3.234375l-2.109375 -3.109375l1.75 0l1.375 1.984375zm8.013672 -3.765625q0 0.296875 -0.078125 0.625q-0.078125 0.3125 -0.234375 0.609375q-0.140625 0.296875 -0.34375 0.578125q-0.1875 0.265625 -0.421875 0.46875l-0.734375 -0.453125q0.21875 -0.390625 0.359375 -0.828125q0.140625 -0.4375 0.140625 -1.0l0 -1.015625l1.3125 0l0 1.015625z" fill-rule="nonzero"/><path fill="#000000" d="m586.62885 47.59852l0 1.734375l-0.828125 0l0 -1.734375l-1.734375 0l0 -0.828125l1.734375 0l0 -1.734375l0.828125 0l0 1.734375l1.734375 0l0 0.828125l-1.734375 0zm-0.390625 1.65625q0.828125 0 1.46875 -0.625q0.578125 -0.59375 0.578125 -1.421875q0 -0.828125 -0.578125 -1.421875q-0.640625 -0.625 -1.46875 -0.625q-0.828125 0 -1.46875 0.625q-0.578125 0.59375 -0.578125 1.421875q0 0.828125 0.578125 1.421875q0.640625 0.625 1.46875 0.625zm2.09375 -0.09375q-0.90625 0.921875 -2.09375 0.921875q-1.1875 0 -2.046875 -0.875q-0.828125 -0.8125 -0.828125 -2.0q0 -1.1875 0.78125 -1.953125q0.90625 -0.921875 2.09375 -0.921875q1.1875 0 2.046875 0.875q0.82806396 0.8125 0.82806396 2.0q0 1.1875 -0.78118896 1.953125z" fill-rule="nonzero"/><path fill="#000000" d="m600.00183 43.87977l0 1.546875l2.375 0l0 1.203125l-2.375 0l0 2.71875q0 0.359375 0.078125 0.59375q0.078125 0.21875 0.21875 0.359375q0.15625 0.140625 0.359375 0.203125q0.21875 0.046875 0.46875 0.046875q0.1875 0 0.375 -0.015625q0.203125 -0.015625 0.375 -0.03125q0.1875 -0.03125 0.34375 -0.0625q0.15625 -0.03125 0.265625 -0.0625l0.15625 1.125q-0.171875 0.09375 -0.40625 0.171875q-0.21875 0.0625 -0.484375 0.109375q-0.25 0.0625 -0.53125 0.078125q-0.265625 0.03125 -0.546875 0.03125q-0.515625 0 -0.9375 -0.140625q-0.421875 -0.140625 -0.734375 -0.421875q-0.296875 -0.296875 -0.46875 -0.734375q-0.15625 -0.453125 -0.15625 -1.078125l0 -2.890625l-1.453125 0l0 -1.203125l1.453125 0l0 -1.546875l1.625 0zm8.544922 4.546875q0 0.8125 -0.125 1.53125q-0.125 0.703125 -0.359375 1.328125q-0.21875 0.625 -0.515625 1.140625q-0.28125 0.515625 -0.625 0.90625q-0.328125 0.40625 -0.6875 0.6875q-0.34375 0.28125 -0.6875 0.421875l-0.296875 -0.875q0.3125 -0.25 0.640625 -0.671875q0.328125 -0.421875 0.59375 -1.0625q0.265625 -0.625 0.421875 -1.46875q0.171875 -0.84375 0.171875 -1.921875l0 -0.15625q0 -1.078125 -0.171875 -1.921875q-0.171875 -0.84375 -0.4375 -1.46875q-0.265625 -0.640625 -0.59375 -1.0625q-0.3125 -0.4375 -0.625 -0.671875l0.296875 -0.875q0.34375 0.140625 0.6875 0.421875q0.359375 0.28125 0.6875 0.6875q0.34375 0.40625 0.625 0.921875q0.296875 0.5 0.515625 1.125q0.234375 0.625 0.359375 1.34375q0.125 0.71875 0.125 1.515625l0 0.125z" fill-rule="nonzero"/><path fill="#000000" fill-opacity="0.0" d="m504.0097 149.83885l30.330688 0l0 29.574799l-30.330688 0z" fill-rule="evenodd"/><path fill="#000000" d="m519.468 162.6676l0 2.078125l3.15625 0l0 1.59375l-3.15625 0l0 3.640625q0 0.453125 0.09375 0.765625q0.109375 0.3125 0.296875 0.5q0.203125 0.171875 0.484375 0.25q0.28125 0.078125 0.625 0.078125q0.25 0 0.5 -0.015625q0.265625 -0.03125 0.5 -0.0625q0.25 -0.03125 0.453125 -0.0625q0.203125 -0.046875 0.359375 -0.09375l0.203125 1.5q-0.21875 0.125 -0.53125 0.234375q-0.296875 0.09375 -0.640625 0.15625q-0.34375 0.0625 -0.71875 0.09375q-0.375 0.046875 -0.734375 0.046875q-0.6875 0 -1.265625 -0.1875q-0.5625 -0.1875 -0.96875 -0.578125q-0.390625 -0.390625 -0.609375 -0.984375q-0.21875 -0.59375 -0.21875 -1.4375l0 -3.84375l-1.9375 0l0 -1.59375l1.9375 0l0 -2.078125l2.171875 0z" fill-rule="nonzero"/><path fill="#000000" fill-opacity="0.0" d="m95.68767 24.396326l180.28346 0l0 29.574804l-180.28346 0z" fill-rule="evenodd"/><path fill="#000000" d="m160.14287 40.2757q0 0.828125 -0.21875 1.515625q-0.21875 0.6875 -0.625 1.1875q-0.40625 0.5 -1.0 0.78125q-0.578125 0.28125 -1.328125 0.28125q-0.734375 0 -1.3125 -0.28125q-0.5625 -0.28125 -0.96875 -0.78125q-0.390625 -0.5 -0.59375 -1.1875q-0.203125 -0.6875 -0.203125 -1.515625l0 -1.234375q0 -0.828125 0.203125 -1.515625q0.203125 -0.6875 0.59375 -1.1875q0.40625 -0.515625 0.96875 -0.796875q0.578125 -0.28125 1.3125 -0.28125q0.75 0 1.328125 0.28125q0.59375 0.28125 1.0 0.796875q0.40625 0.5 0.625 1.1875q0.21875 0.6875 0.21875 1.515625l0 1.234375zm-1.671875 -1.25q0 -0.53125 -0.09375 -0.96875q-0.078125 -0.4375 -0.265625 -0.75q-0.171875 -0.3125 -0.453125 -0.484375q-0.28125 -0.1875 -0.6875 -0.1875q-0.40625 0 -0.671875 0.1875q-0.265625 0.171875 -0.4375 0.484375q-0.15625 0.3125 -0.234375 0.75q-0.0625 0.4375 -0.0625 0.96875l0 1.25q0 0.515625 0.0625 0.953125q0.078125 0.4375 0.234375 0.765625q0.171875 0.328125 0.4375 0.515625q0.265625 0.171875 0.671875 0.171875q0.40625 0 0.6875 -0.171875q0.28125 -0.1875 0.453125 -0.5q0.1875 -0.328125 0.265625 -0.765625q0.09375 -0.453125 0.09375 -0.96875l0 -1.25zm7.529297 -1.5625q0.375 0 0.6875 0.046875q0.3125 0.046875 0.5 0.109375l-0.234375 1.625q-0.328125 -0.078125 -0.671875 -0.109375q-0.328125 -0.046875 -0.625 -0.046875q-0.6875 0 -1.109375 0.265625q-0.40625 0.265625 -0.609375 0.75l0 3.8125l-1.625 0l0 -6.34375l1.515625 0l0.078125 1.046875q0.375 -0.546875 0.90625 -0.84375q0.546875 -0.3125 1.1875 -0.3125zm3.0917969 0.109375l3.453125 0l0 5.015625l1.703125 0l0 1.328125l-5.15625 0l0 -1.328125l1.796875 0l0 -3.6875l-1.796875 0l0 -1.328125zm1.6875 -1.625q0 -0.1875 0.0625 -0.34375q0.0625 -0.15625 0.1875 -0.265625q0.125 -0.125 0.296875 -0.1875q0.171875 -0.0625 0.390625 -0.0625q0.421875 0 0.671875 0.25q0.265625 0.234375 0.265625 0.609375q0 0.390625 -0.265625 0.640625q-0.25 0.234375 -0.671875 0.234375q-0.21875 0 -0.390625 -0.0625q-0.171875 -0.0625 -0.296875 -0.171875q-0.125 -0.125 -0.1875 -0.28125q-0.0625 -0.171875 -0.0625 -0.359375zm4.904297 4.75q0 -0.71875 0.171875 -1.3125q0.1875 -0.609375 0.515625 -1.03125q0.34375 -0.421875 0.8125 -0.65625q0.484375 -0.234375 1.078125 -0.234375q0.5625 0 0.953125 0.1875q0.40625 0.1875 0.6875 0.53125l0.0625 -0.609375l1.484375 0l0 6.140625q0 0.640625 -0.21875 1.140625q-0.21875 0.515625 -0.625 0.859375q-0.390625 0.34375 -0.953125 0.515625q-0.546875 0.1875 -1.21875 0.1875q-0.28125 0 -0.609375 -0.0625q-0.328125 -0.0625 -0.65625 -0.1875q-0.3125 -0.109375 -0.609375 -0.3125q-0.28125 -0.1875 -0.484375 -0.453125l0.734375 -0.984375q0.3125 0.34375 0.703125 0.53125q0.390625 0.1875 0.84375 0.1875q0.6875 0 1.0625 -0.375q0.390625 -0.359375 0.390625 -1.03125l0 -0.359375q-0.28125 0.3125 -0.671875 0.5q-0.375 0.171875 -0.890625 0.171875q-0.59375 0 -1.0625 -0.25q-0.46875 -0.25 -0.8125 -0.671875q-0.328125 -0.421875 -0.515625 -1.015625q-0.171875 -0.59375 -0.171875 -1.28125l0 -0.125zm1.640625 0.125q0 0.390625 0.078125 0.734375q0.078125 0.34375 0.234375 0.609375q0.171875 0.25 0.421875 0.40625q0.25 0.140625 0.609375 0.140625q0.421875 0 0.703125 -0.15625q0.28125 -0.171875 0.4375 -0.46875l0 -2.6875q-0.15625 -0.296875 -0.4375 -0.453125q-0.28125 -0.171875 -0.703125 -0.171875q-0.34375 0 -0.59375 0.15625q-0.25 0.15625 -0.421875 0.421875q-0.15625 0.25 -0.25 0.609375q-0.078125 0.34375 -0.078125 0.734375l0 0.125zm6.169922 -3.25l3.453125 0l0 5.015625l1.703125 0l0 1.328125l-5.15625 0l0 -1.328125l1.796875 0l0 -3.6875l-1.796875 0l0 -1.328125zm1.6875 -1.625q0 -0.1875 0.0625 -0.34375q0.0625 -0.15625 0.1875 -0.265625q0.125 -0.125 0.296875 -0.1875q0.171875 -0.0625 0.390625 -0.0625q0.421875 0 0.671875 0.25q0.265625 0.234375 0.265625 0.609375q0 0.390625 -0.265625 0.640625q-0.25 0.234375 -0.671875 0.234375q-0.21875 0 -0.390625 -0.0625q-0.171875 -0.0625 -0.296875 -0.171875q-0.125 -0.125 -0.1875 -0.28125q-0.0625 -0.171875 -0.0625 -0.359375zm6.544922 1.625l0.109375 0.875q0.34375 -0.46875 0.828125 -0.71875q0.484375 -0.265625 1.078125 -0.265625q0.46875 0 0.859375 0.140625q0.40625 0.140625 0.703125 0.453125q0.296875 0.296875 0.453125 0.78125q0.15625 0.484375 0.15625 1.171875l0 3.90625l-1.625 0l0 -3.875q0 -0.375 -0.09375 -0.609375q-0.078125 -0.25 -0.234375 -0.390625q-0.15625 -0.140625 -0.390625 -0.203125q-0.21875 -0.0625 -0.5 -0.0625q-0.40625 0 -0.703125 0.171875q-0.296875 0.171875 -0.46875 0.46875l0 4.5l-1.640625 0l0 -6.34375l1.46875 0zm9.685547 6.34375q-0.046875 -0.125 -0.09375 -0.265625q-0.046875 -0.15625 -0.0625 -0.328125q-0.140625 0.140625 -0.328125 0.28125q-0.171875 0.125 -0.390625 0.21875q-0.203125 0.09375 -0.46875 0.15625q-0.25 0.0625 -0.546875 0.0625q-0.484375 0 -0.890625 -0.140625q-0.40625 -0.15625 -0.703125 -0.40625q-0.296875 -0.25 -0.46875 -0.59375q-0.15625 -0.34375 -0.15625 -0.765625q0 -1.0 0.75 -1.546875q0.75 -0.546875 2.234375 -0.546875l0.90625 0l0 -0.375q0 -0.453125 -0.296875 -0.71875q-0.296875 -0.265625 -0.859375 -0.265625q-0.5 0 -0.734375 0.21875q-0.234375 0.203125 -0.234375 0.5625l-1.625 0q0 -0.40625 0.171875 -0.765625q0.1875 -0.359375 0.53125 -0.640625q0.34375 -0.28125 0.828125 -0.4375q0.5 -0.15625 1.140625 -0.15625q0.578125 0 1.0625 0.140625q0.5 0.140625 0.859375 0.421875q0.375 0.265625 0.578125 0.6875q0.203125 0.421875 0.203125 0.96875l0 2.71875q0 0.5 0.0625 0.84375q0.0625 0.328125 0.1875 0.578125l0 0.09375l-1.65625 0zm-1.546875 -1.140625q0.25 0 0.453125 -0.0625q0.21875 -0.0625 0.390625 -0.15625q0.171875 -0.09375 0.28125 -0.203125q0.125 -0.125 0.203125 -0.25l0 -1.09375l-0.828125 0q-0.390625 0 -0.65625 0.078125q-0.265625 0.078125 -0.4375 0.21875q-0.171875 0.125 -0.265625 0.3125q-0.078125 0.171875 -0.078125 0.390625q0 0.328125 0.234375 0.546875q0.234375 0.21875 0.703125 0.21875zm5.138672 -7.859375l3.546875 0l0 7.671875l1.8125 0l0 1.328125l-5.359375 0l0 -1.328125l1.890625 0l0 -6.34375l-1.890625 0l0 -1.328125zm8.498047 8.0625q0 -0.234375 0.078125 -0.421875q0.078125 -0.203125 0.21875 -0.34375q0.15625 -0.15625 0.359375 -0.234375q0.21875 -0.078125 0.484375 -0.078125q0.265625 0 0.46875 0.078125q0.21875 0.078125 0.359375 0.234375q0.140625 0.140625 0.21875 0.34375q0.078125 0.1875 0.078125 0.421875q0 0.21875 -0.078125 0.421875q-0.078125 0.1875 -0.21875 0.328125q-0.140625 0.140625 -0.359375 0.21875q-0.203125 0.09375 -0.46875 0.09375q-0.265625 0 -0.484375 -0.09375q-0.203125 -0.078125 -0.359375 -0.21875q-0.140625 -0.140625 -0.21875 -0.328125q-0.078125 -0.203125 -0.078125 -0.421875zm0 -5.0q0 -0.234375 0.078125 -0.421875q0.078125 -0.203125 0.21875 -0.34375q0.15625 -0.15625 0.359375 -0.234375q0.21875 -0.078125 0.484375 -0.078125q0.265625 0 0.46875 0.078125q0.21875 0.078125 0.359375 0.234375q0.140625 0.140625 0.21875 0.34375q0.078125 0.1875 0.078125 0.421875q0 0.21875 -0.078125 0.421875q-0.078125 0.1875 -0.21875 0.328125q-0.140625 0.140625 -0.359375 0.234375q-0.203125 0.078125 -0.46875 0.078125q-0.265625 0 -0.484375 -0.078125q-0.203125 -0.09375 -0.359375 -0.234375q-0.140625 -0.140625 -0.21875 -0.328125q-0.078125 -0.203125 -0.078125 -0.421875z" fill-rule="nonzero"/><path fill="#000000" fill-opacity="0.0" d="m189.24068 112.78845l39.149612 0l0 29.574799l-39.149612 0z" fill-rule="evenodd"/><path fill="#000000" d="m198.7563 122.06085l6.578125 0l0 1.765625l-2.21875 0l0 7.84375l2.21875 0l0 1.765625l-6.578125 0l0 -1.765625l2.15625 0l0 -7.84375l-2.15625 0l0 -1.765625zm12.8828125 8.1875l2.140625 -8.1875l2.421875 0l-3.4375 11.375l-2.234375 0l-3.4375 -11.375l2.421875 0l2.125 8.1875z" fill-rule="nonzero"/><path fill="#000000" fill-opacity="0.0" d="m235.72179 65.3399l49.00786 0l0 29.574799l-49.00786 0z" fill-rule="evenodd"/><path fill="#000000" d="m260.39368 82.8874l1.859375 -2.640625l2.34375 0l-2.84375 4.140625l2.9375 4.3125l-2.34375 0l-1.9375 -2.765625l-1.9375 2.765625l-2.34375 0l2.9375 -4.3125l-2.828125 -4.140625l2.328125 0l1.828125 2.640625zm10.6953125 -5.03125q0 0.40625 -0.109375 0.828125q-0.109375 0.421875 -0.3125 0.828125q-0.1875 0.40625 -0.453125 0.765625q-0.25 0.359375 -0.546875 0.640625l-1.0 -0.625q0.296875 -0.5 0.484375 -1.078125q0.203125 -0.59375 0.203125 -1.359375l0 -1.34375l1.734375 0l0 1.34375z" fill-rule="nonzero"/><path fill="#000000" fill-opacity="0.0" d="m192.15459 163.65355l20.566925 0l0 29.228348l-20.566925 0z" fill-rule="evenodd"/><path fill="#000000" d="m204.57646 179.45584l-1.203125 1.3125l0 3.359375l-2.203125 0l0 -11.375l2.203125 0l0 5.203125l1.03125 -1.390625l2.765625 -3.8125l2.6875 0l-3.828125 5.03125l3.96875 6.34375l-2.609375 0l-2.8125 -4.671875z" fill-rule="nonzero"/><path fill="#cfe2f3" d="m233.284 163.47612l53.35431 0l0 29.574799l-53.35431 0z" fill-rule="evenodd"/><path stroke="#000000" stroke-width="1.0" stroke-linejoin="round" stroke-linecap="butt" d="m233.284 163.47612l53.35431 0l0 29.574799l-53.35431 0z" fill-rule="evenodd"/><path fill="#000000" d="m241.25275 184.12352l4.40625 -11.453125l1.640625 0l4.6875 11.453125l-1.734375 0l-1.328125 -3.46875l-4.796875 0l-1.25 3.46875l-1.625 0zm3.3125 -4.703125l3.890625 0l-1.203125 -3.171875q-0.546875 -1.453125 -0.8125 -2.375q-0.21875 1.09375 -0.609375 2.1875l-1.265625 3.359375zm8.65625 4.703125l0 -11.453125l8.28125 0l0 1.34375l-6.765625 0l0 3.515625l6.34375 0l0 1.34375l-6.34375 0l0 3.890625l7.03125 0l0 1.359375l-8.546875 0zm10.125 -3.6875l1.4375 -0.125q0.09375 0.859375 0.46875 1.421875q0.375 0.546875 1.15625 0.890625q0.78125 0.328125 1.75 0.328125q0.875 0 1.53125 -0.25q0.671875 -0.265625 0.984375 -0.703125q0.328125 -0.453125 0.328125 -0.984375q0 -0.546875 -0.3125 -0.9375q-0.3125 -0.40625 -1.03125 -0.6875q-0.453125 -0.171875 -2.03125 -0.546875q-1.578125 -0.390625 -2.21875 -0.71875q-0.8125 -0.4375 -1.21875 -1.0625q-0.40625 -0.640625 -0.40625 -1.4375q0 -0.859375 0.484375 -1.609375q0.5 -0.765625 1.4375 -1.15625q0.953125 -0.390625 2.109375 -0.390625q1.28125 0 2.25 0.421875q0.96875 0.40625 1.484375 1.203125q0.53125 0.796875 0.578125 1.796875l-1.453125 0.109375q-0.125 -1.078125 -0.796875 -1.625q-0.671875 -0.5625 -2.0 -0.5625q-1.375 0 -2.0 0.5q-0.625 0.5 -0.625 1.21875q0 0.609375 0.4375 1.015625q0.4375 0.390625 2.28125 0.8125q1.859375 0.421875 2.546875 0.734375q1.0 0.453125 1.46875 1.171875q0.484375 0.703125 0.484375 1.625q0 0.90625 -0.53125 1.71875q-0.515625 0.8125 -1.5 1.265625q-0.984375 0.453125 -2.203125 0.453125q-1.5625 0 -2.609375 -0.453125q-1.046875 -0.46875 -1.65625 -1.375q-0.59375 -0.90625 -0.625 -2.0625z" fill-rule="nonzero"/><path fill="#000000" fill-opacity="0.0" d="m212.72151 178.26772l20.56694 0" fill-rule="evenodd"/><path stroke="#000000" stroke-width="1.0" stroke-linejoin="round" stroke-linecap="butt" d="m212.72151 178.26772l14.56694 0" fill-rule="evenodd"/><path fill="#000000" stroke="#000000" stroke-width="1.0" stroke-linecap="butt" d="m227.28845 179.91945l4.538086 -1.6517334l-4.538086 -1.6517334z" fill-rule="evenodd"/><path fill="#000000" fill-opacity="0.0" d="m259.95642 135.18216l0 28.283463" fill-rule="evenodd"/><path stroke="#000000" stroke-width="1.0" stroke-linejoin="round" stroke-linecap="butt" d="m259.95642 135.18214l0 22.283463" fill-rule="evenodd"/><path fill="#000000" stroke="#000000" stroke-width="1.0" stroke-linecap="butt" d="m258.3047 157.4656l1.6517334 4.538101l1.6517334 -4.538101z" fill-rule="evenodd"/><path fill="#cfe2f3" d="m250.9013 127.57585l0 0c0 -4.200844 4.054123 -7.6063004 9.055115 -7.6063004l0 0c5.001007 0 9.055115 3.4054565 9.055115 7.6063004l0 0c0 4.2008514 -4.0541077 7.606308 -9.055115 7.606308l0 0c-5.000992 0 -9.055115 -3.4054565 -9.055115 -7.606308z" fill-rule="evenodd"/><path fill="#000000" fill-opacity="0.0" d="m259.95642 119.96955l0 15.212608m-9.055115 -7.606308l18.11023 0" fill-rule="evenodd"/><path fill="#000000" fill-opacity="0.0" d="m250.9013 127.57585l0 0c0 -4.200844 4.054123 -7.6063004 9.055115 -7.6063004l0 0c5.001007 0 9.055115 3.4054565 9.055115 7.6063004l0 0c0 4.2008514 -4.0541077 7.606308 -9.055115 7.606308l0 0c-5.000992 0 -9.055115 -3.4054565 -9.055115 -7.606308z" fill-rule="evenodd"/><path stroke="#000000" stroke-width="1.0" stroke-linejoin="round" stroke-linecap="butt" d="m259.95642 119.96955l0 15.212608m-9.055115 -7.606308l18.11023 0" fill-rule="evenodd"/><path stroke="#000000" stroke-width="1.0" stroke-linejoin="round" stroke-linecap="butt" d="m250.9013 127.57585l0 0c0 -4.200844 4.054123 -7.6063004 9.055115 -7.6063004l0 0c5.001007 0 9.055115 3.4054565 9.055115 7.6063004l0 0c0 4.2008514 -4.0541077 7.606308 -9.055115 7.606308l0 0c-5.000992 0 -9.055115 -3.4054565 -9.055115 -7.606308z" fill-rule="evenodd"/><path fill="#000000" fill-opacity="0.0" d="m228.39029 127.57585l22.519684 0" fill-rule="evenodd"/><path stroke="#000000" stroke-width="1.0" stroke-linejoin="round" stroke-linecap="butt" d="m228.39029 127.57585l16.5197 0" fill-rule="evenodd"/><path fill="#000000" stroke="#000000" stroke-width="1.0" stroke-linecap="butt" d="m244.90999 129.22758l4.538086 -1.6517334l-4.538086 -1.6517334z" fill-rule="evenodd"/><path fill="#000000" fill-opacity="0.0" d="m260.2257 94.914696l-0.28344727 25.039375" fill-rule="evenodd"/><path stroke="#000000" stroke-width="1.0" stroke-linejoin="round" stroke-linecap="butt" d="m260.2257 94.914696l-0.21554565 19.039764" fill-rule="evenodd"/><path fill="#000000" stroke="#000000" stroke-width="1.0" stroke-linecap="butt" d="m258.35855 113.93575l1.6002502 4.5565033l1.7030029 -4.519104z" fill-rule="evenodd"/><path fill="#000000" fill-opacity="0.0" d="m286.6383 178.26352l20.850403 -0.4409485" fill-rule="evenodd"/><path stroke="#000000" stroke-width="1.0" stroke-linejoin="round" stroke-linecap="butt" d="m286.63834 178.26352l14.851715 -0.3140869" fill-rule="evenodd"/><path fill="#000000" stroke="#000000" stroke-width="1.0" stroke-linecap="butt" d="m301.525 179.60078l4.5021667 -1.7472992l-4.5720215 -1.5554199z" fill-rule="evenodd"/><path fill="#000000" fill-opacity="0.0" d="m307.50394 163.04855l44.283478 0l0 29.574799l-44.283478 0z" fill-rule="evenodd"/><path fill="#000000" d="m325.13785 175.8773l0 2.078125l3.15625 0l0 1.59375l-3.15625 0l0 3.640625q0 0.453125 0.09375 0.765625q0.109375 0.3125 0.296875 0.5q0.203125 0.171875 0.484375 0.25q0.28125 0.078125 0.625 0.078125q0.25 0 0.5 -0.015625q0.265625 -0.03125 0.5 -0.0625q0.25 -0.03125 0.453125 -0.0625q0.203125 -0.046875 0.359375 -0.09375l0.203125 1.5q-0.21875 0.125 -0.53125 0.234375q-0.296875 0.09375 -0.640625 0.15625q-0.34375 0.0625 -0.71875 0.09375q-0.375 0.046875 -0.734375 0.046875q-0.6875 0 -1.265625 -0.1875q-0.5625 -0.1875 -0.96875 -0.578125q-0.390625 -0.390625 -0.609375 -0.984375q-0.21875 -0.59375 -0.21875 -1.4375l0 -3.84375l-1.9375 0l0 -1.59375l1.9375 0l0 -2.078125l2.171875 0zm10.5703125 -0.3125q0 0.40625 -0.109375 0.828125q-0.109375 0.421875 -0.3125 0.828125q-0.1875 0.40625 -0.453125 0.765625q-0.25 0.359375 -0.546875 0.640625l-1.0 -0.625q0.296875 -0.5 0.484375 -1.078125q0.203125 -0.59375 0.203125 -1.359375l0 -1.34375l1.734375 0l0 1.34375z" fill-rule="nonzero"/></g></svg>