<svg version="1.1" viewBox="0.0 0.0 658.7349081364829 287.08923884514434" fill="none" stroke="none" stroke-linecap="square" stroke-miterlimit="10" xmlns:xlink="http://www.w3.org/1999/xlink" xmlns="http://www.w3.org/2000/svg"><clipPath id="p.0"><path d="m0 0l658.7349 0l0 287.08923l-658.7349 0l0 -287.08923z" clip-rule="nonzero"/></clipPath><g clip-path="url(#p.0)"><path fill="#000000" fill-opacity="0.0" d="m0 0l658.7349 0l0 287.08923l-658.7349 0z" fill-rule="evenodd"/><path fill="#f3f3f3" d="m284.59686 64.062996l360.9134 0l0 202.23624l-360.9134 0z" fill-rule="evenodd"/><path stroke="#000000" stroke-width="1.0" stroke-linejoin="round" stroke-linecap="butt" d="m284.59686 64.062996l360.9134 0l0 202.23624l-360.9134 0z" fill-rule="evenodd"/><path fill="#f3f3f3" d="m3.6456692 64.06089l254.96062 0l0 202.23624l-254.96062 0z" fill-rule="evenodd"/><path stroke="#000000" stroke-width="1.0" stroke-linejoin="round" stroke-linecap="butt" d="m3.6456692 64.06089l254.96062 0l0 202.23624l-254.96062 0z" fill-rule="evenodd"/><path fill="#000000" fill-opacity="0.0" d="m57.912598 111.51286l39.149605 0l0 29.574799l-39.149605 0z" fill-rule="evenodd"/><path fill="#000000" d="m67.42822 120.78526l6.578125 0l0 1.765625l-2.21875 0l0 7.84375l2.21875 0l0 1.765625l-6.578125 0l0 -1.765625l2.15625 0l0 -7.84375l-2.15625 0l0 -1.765625zm12.8828125 8.1875l2.140625 -8.1875l2.421875 0l-3.4375 11.375l-2.234375 0l-3.4375 -11.375l2.421875 0l2.125 8.1875z" fill-rule="nonzero"/><path fill="#000000" fill-opacity="0.0" d="m113.46457 64.062996l30.330704 0l0 29.574799l-30.330704 0z" fill-rule="evenodd"/><path fill="#000000" d="m126.282265 78.96987l0.0625 1.015625q0.25 -0.546875 0.671875 -0.859375q0.421875 -0.3125 1.0312424 -0.3125q1.03125 0 1.34375 0.890625q0.25 -0.421875 0.625 -0.65625q0.390625 -0.234375 0.9375 -0.234375q0.390625 0 0.71875 0.140625q0.328125 0.140625 0.578125 0.453125q0.25 0.296875 0.375 0.796875q0.140625 0.484375 0.140625 1.1875l0 6.03125l-1.96875 0l0 -6.046875q0 -0.234375 -0.0625 -0.390625q-0.046875 -0.15625 -0.140625 -0.25q-0.078125 -0.09375 -0.1875 -0.125q-0.109375 -0.03125 -0.234375 -0.03125q-0.21875 0 -0.375 0.109375q-0.15625 0.09375 -0.25 0.28125l0 6.453125l-1.9062424 0l0 -6.046875q0 -0.25 -0.046875 -0.40625q-0.046875 -0.15625 -0.140625 -0.234375q-0.078125 -0.09375 -0.1875 -0.125q-0.109375 -0.03125 -0.234375 -0.03125q-0.25 0 -0.40625 0.140625q-0.140625 0.140625 -0.234375 0.375l0 6.328125l-1.96875 0l0 -8.453125l1.859375 0z" fill-rule="nonzero"/><path fill="#000000" fill-opacity="0.0" d="m51.062206 162.3769l30.330708 0l0 29.228348l-30.330708 0z" fill-rule="evenodd"/><path fill="#000000" d="m63.48408 178.1792l-1.203125 1.3125l0 3.359375l-2.203125 0l0 -11.375l2.203125 0l0 5.203125l1.03125 -1.390625l2.7656212 -3.8125l2.6875 0l-3.828125 5.03125l3.96875 6.34375l-2.609375 0l-2.8124962 -4.671875z" fill-rule="nonzero"/><path fill="#cfe2f3" d="m101.9559 162.20053l53.35434 0l0 29.574799l-53.35434 0z" fill-rule="evenodd"/><path stroke="#000000" stroke-width="1.0" stroke-linejoin="round" stroke-linecap="butt" d="m101.9559 162.20053l53.35434 0l0 29.574799l-53.35434 0z" fill-rule="evenodd"/><path fill="#000000" d="m109.92465 182.84793l4.40625 -11.453125l1.640625 0l4.6875 11.453125l-1.734375 0l-1.328125 -3.46875l-4.796875 0l-1.25 3.46875l-1.625 0zm3.3125 -4.703125l3.890625 0l-1.203125 -3.171875q-0.546875 -1.453125 -0.8125 -2.375q-0.21875 1.09375 -0.609375 2.1875l-1.265625 3.359375zm8.65625 4.703125l0 -11.453125l8.28125 0l0 1.34375l-6.765625 0l0 3.515625l6.34375 0l0 1.34375l-6.34375 0l0 3.890625l7.03125 0l0 1.359375l-8.546875 0zm10.125 -3.6875l1.4375 -0.125q0.09375 0.859375 0.46875 1.421875q0.375 0.546875 1.15625 0.890625q0.78125 0.328125 1.75 0.328125q0.875 0 1.53125 -0.25q0.671875 -0.265625 0.984375 -0.703125q0.328125 -0.453125 0.328125 -0.984375q0 -0.546875 -0.3125 -0.9375q-0.3125 -0.40625 -1.03125 -0.6875q-0.453125 -0.171875 -2.03125 -0.546875q-1.578125 -0.390625 -2.21875 -0.71875q-0.8125 -0.4375 -1.21875 -1.0625q-0.40625 -0.640625 -0.40625 -1.4375q0 -0.859375 0.484375 -1.609375q0.5 -0.765625 1.4375 -1.15625q0.953125 -0.390625 2.109375 -0.390625q1.28125 0 2.25 0.421875q0.96875 0.40625 1.484375 1.203125q0.53125 0.796875 0.578125 1.796875l-1.453125 0.109375q-0.125 -1.078125 -0.796875 -1.625q-0.671875 -0.5625 -2.0 -0.5625q-1.375 0 -2.0 0.5q-0.625 0.5 -0.625 1.21875q0 0.609375 0.4375 1.015625q0.4375 0.390625 2.28125 0.8125q1.859375 0.421875 2.546875 0.734375q1.0 0.453125 1.46875 1.171875q0.484375 0.703125 0.484375 1.625q0 0.90625 -0.53125 1.71875q-0.515625 0.8125 -1.5 1.265625q-0.984375 0.453125 -2.203125 0.453125q-1.5625 0 -2.609375 -0.453125q-1.046875 -0.46875 -1.65625 -1.375q-0.59375 -0.90625 -0.625 -2.0625z" fill-rule="nonzero"/><path fill="#000000" fill-opacity="0.0" d="m81.392914 176.99107l20.566925 0" fill-rule="evenodd"/><path stroke="#000000" stroke-width="1.0" stroke-linejoin="round" stroke-linecap="butt" d="m81.392914 176.99107l14.566925 0" fill-rule="evenodd"/><path fill="#000000" stroke="#000000" stroke-width="1.0" stroke-linecap="butt" d="m95.95984 178.6428l4.538101 -1.6517334l-4.538101 -1.6517334z" fill-rule="evenodd"/><path fill="#000000" fill-opacity="0.0" d="m128.62834 133.90656l0 28.283478" fill-rule="evenodd"/><path stroke="#000000" stroke-width="1.0" stroke-linejoin="round" stroke-linecap="butt" d="m128.62834 133.90656l0 22.283463" fill-rule="evenodd"/><path fill="#000000" stroke="#000000" stroke-width="1.0" stroke-linecap="butt" d="m126.97661 156.19002l1.6517334 4.538101l1.6517334 -4.538101z" fill-rule="evenodd"/><path fill="#cfe2f3" d="m119.57323 126.30026l0 0c0 -4.200844 4.0541153 -7.6063004 9.055115 -7.6063004l0 0c5.001007 0 9.05513 3.4054565 9.05513 7.6063004l0 0c0 4.200836 -4.054123 7.6062927 -9.05513 7.6062927l0 0c-5.0009995 0 -9.055115 -3.4054565 -9.055115 -7.6062927z" fill-rule="evenodd"/><path fill="#000000" fill-opacity="0.0" d="m128.62834 118.69396l0 15.212593m-9.055115 -7.6062927l18.110245 0" fill-rule="evenodd"/><path fill="#000000" fill-opacity="0.0" d="m119.57323 126.30026l0 0c0 -4.200844 4.0541153 -7.6063004 9.055115 -7.6063004l0 0c5.001007 0 9.05513 3.4054565 9.05513 7.6063004l0 0c0 4.200836 -4.054123 7.6062927 -9.05513 7.6062927l0 0c-5.0009995 0 -9.055115 -3.4054565 -9.055115 -7.6062927z" fill-rule="evenodd"/><path stroke="#000000" stroke-width="1.0" stroke-linejoin="round" stroke-linecap="butt" d="m128.62834 118.69396l0 15.212593m-9.055115 -7.6062927l18.110245 0" fill-rule="evenodd"/><path stroke="#000000" stroke-width="1.0" stroke-linejoin="round" stroke-linecap="butt" d="m119.57323 126.30026l0 0c0 -4.200844 4.0541153 -7.6063004 9.055115 -7.6063004l0 0c5.001007 0 9.05513 3.4054565 9.05513 7.6063004l0 0c0 4.200836 -4.054123 7.6062927 -9.05513 7.6062927l0 0c-5.0009995 0 -9.055115 -3.4054565 -9.055115 -7.6062927z" fill-rule="evenodd"/><path fill="#000000" fill-opacity="0.0" d="m97.0622 126.30026l22.519684 0" fill-rule="evenodd"/><path stroke="#000000" stroke-width="1.0" stroke-linejoin="round" stroke-linecap="butt" d="m97.0622 126.300255l16.519684 0" fill-rule="evenodd"/><path fill="#000000" stroke="#000000" stroke-width="1.0" stroke-linecap="butt" d="m113.58189 127.95199l4.538101 -1.6517334l-4.538101 -1.6517258z" fill-rule="evenodd"/><path fill="#000000" fill-opacity="0.0" d="m128.62993 93.637794l0 25.07087" fill-rule="evenodd"/><path stroke="#000000" stroke-width="1.0" stroke-linejoin="round" stroke-linecap="butt" d="m128.62993 93.637794l0 19.07087" fill-rule="evenodd"/><path fill="#000000" stroke="#000000" stroke-width="1.0" stroke-linecap="butt" d="m126.97819 112.708664l1.651741 4.5380936l1.6517181 -4.5380936z" fill-rule="evenodd"/><path fill="#000000" fill-opacity="0.0" d="m155.31024 176.98793l20.850388 -0.4409485" fill-rule="evenodd"/><path stroke="#000000" stroke-width="1.0" stroke-linejoin="round" stroke-linecap="butt" d="m155.31024 176.98792l14.851746 -0.31407166" fill-rule="evenodd"/><path fill="#000000" stroke="#000000" stroke-width="1.0" stroke-linecap="butt" d="m170.1969 178.3252l4.5021667 -1.7473145l-4.572006 -1.5554047z" fill-rule="evenodd"/><path fill="#000000" fill-opacity="0.0" d="m176.1752 161.77217l30.330704 0l0 29.574814l-30.330704 0z" fill-rule="evenodd"/><path fill="#000000" d="m191.63351 174.60092l0 2.078125l3.15625 0l0 1.59375l-3.15625 0l0 3.640625q0 0.453125 0.09375 0.765625q0.109375 0.3125 0.296875 0.5q0.203125 0.171875 0.484375 0.25q0.28125 0.078125 0.625 0.078125q0.25 0 0.5 -0.015625q0.265625 -0.03125 0.5 -0.0625q0.25 -0.03125 0.453125 -0.0625q0.203125 -0.046875 0.359375 -0.09375l0.203125 1.5q-0.21875 0.125 -0.53125 0.234375q-0.296875 0.09375 -0.640625 0.15625q-0.34375 0.0625 -0.71875 0.09375q-0.375 0.046875 -0.734375 0.046875q-0.6875 0 -1.265625 -0.1875q-0.5625 -0.1875 -0.96875 -0.578125q-0.390625 -0.390625 -0.609375 -0.984375q-0.21875 -0.59375 -0.21875 -1.4375l0 -3.84375l-1.9375 0l0 -1.59375l1.9375 0l0 -2.078125l2.171875 0z" fill-rule="nonzero"/><path fill="#000000" fill-opacity="0.0" d="m28.420473 212.88818l207.65355 0l0 29.574814l-207.65355 0z" fill-rule="evenodd"/><path fill="#000000" d="m45.445488 224.51756l0 1.546875l2.375 0l0 1.203125l-2.375 0l0 2.71875q0 0.359375 0.078125 0.59375q0.078125 0.21875 0.21875 0.359375q0.15625 0.140625 0.359375 0.203125q0.21875 0.046875 0.46875 0.046875q0.1875 0 0.375 -0.015625q0.203125 -0.015625 0.375 -0.03125q0.1875 -0.03125 0.34375 -0.0625q0.15625 -0.03125 0.265625 -0.0625l0.15625 1.125q-0.171875 0.09375 -0.40625 0.171875q-0.21875 0.0625 -0.484375 0.109375q-0.25 0.0625 -0.53125 0.078125q-0.265625 0.03125 -0.546875 0.03125q-0.515625 0 -0.9375 -0.140625q-0.421875 -0.140625 -0.734375 -0.421875q-0.296875 -0.296875 -0.46875 -0.734375q-0.15625 -0.453125 -0.15625 -1.078125l0 -2.890625l-1.453125 0l0 -1.203125l1.453125 0l0 -1.546875l1.625 0zm17.058594 3.6875l-5.546875 0l0 -1.328125l5.546875 0l0 1.328125zm0 2.53125l-5.546875 0l0 -1.328125l5.546875 0l0 1.328125zm12.902344 -0.109375l-2.5625 0l-0.5 1.78125l-1.734375 0l2.78125 -8.53125l1.5 0l2.75 8.53125l-1.734375 0l-0.5 -1.78125zm-2.15625 -1.40625l1.765625 0l-0.875 -3.140625l-0.890625 3.140625zm10.404297 -0.546875l-3.5 0l0 2.40625l4.09375 0l0 1.328125l-5.75 0l0 -8.53125l5.734375 0l0 1.34375l-4.078125 0l0 2.140625l3.5 0l0 1.3125zm6.388672 1.5q0 -0.21875 -0.078125 -0.421875q-0.078125 -0.203125 -0.28125 -0.375q-0.1875 -0.171875 -0.5 -0.3125q-0.296875 -0.140625 -0.75 -0.265625q-0.5625 -0.15625 -1.078125 -0.375q-0.5 -0.234375 -0.890625 -0.546875q-0.375 -0.328125 -0.609375 -0.75q-0.234375 -0.4375 -0.234375 -1.0q0 -0.53125 0.21875 -0.96875q0.234375 -0.4375 0.640625 -0.75q0.40625 -0.3125 0.953125 -0.484375q0.546875 -0.171875 1.203125 -0.171875q0.65625 0 1.203125 0.203125q0.5625 0.1875 0.953125 0.546875q0.40625 0.34375 0.625 0.828125q0.234375 0.46875 0.234375 1.046875l-1.609375 0q-0.015625 -0.28125 -0.109375 -0.515625q-0.078125 -0.25 -0.265625 -0.421875q-0.171875 -0.171875 -0.4375 -0.265625q-0.265625 -0.109375 -0.625 -0.109375q-0.328125 0 -0.59375 0.09375q-0.25 0.078125 -0.421875 0.21875q-0.171875 0.140625 -0.265625 0.34375q-0.09375 0.1875 -0.09375 0.421875q0 0.234375 0.109375 0.4375q0.125 0.1875 0.359375 0.34375q0.234375 0.15625 0.546875 0.28125q0.328125 0.125 0.75 0.234375q0.578125 0.171875 1.0625 0.421875q0.5 0.25 0.84375 0.59375q0.359375 0.328125 0.5625 0.765625q0.203125 0.421875 0.203125 0.953125q0 0.5625 -0.234375 1.0q-0.21875 0.4375 -0.625 0.734375q-0.390625 0.296875 -0.953125 0.453125q-0.546875 0.15625 -1.1875 0.15625q-0.40625 0 -0.8125 -0.078125q-0.40625 -0.0625 -0.78125 -0.21875q-0.359375 -0.15625 -0.671875 -0.375q-0.3125 -0.234375 -0.546875 -0.53125q-0.234375 -0.3125 -0.375 -0.703125q-0.125 -0.390625 -0.125 -0.859375l1.625 0q0.015625 0.390625 0.125 0.671875q0.125 0.265625 0.34375 0.453125q0.234375 0.171875 0.53125 0.25q0.3125 0.078125 0.6875 0.078125q0.328125 0 0.578125 -0.0625q0.25 -0.078125 0.421875 -0.21875q0.1875 -0.140625 0.28125 -0.328125q0.09375 -0.1875 0.09375 -0.421875z" fill-rule="nonzero"/><path fill="#000000" d="m94.181816 235.15819l-0.484375 0.453125l0 1.296875l-1.09375 0l0 -6.0l1.09375 0l0 3.421875l0.328125 -0.375l1.15625 -1.28125l1.3125 0l-1.59375 1.765625l1.8125 2.46875l-1.328125 0l-1.203125 -1.75z" fill-rule="nonzero"/><path fill="#000000" d="m98.8576 228.93944q0 -0.828125 0.125 -1.546875q0.140625 -0.734375 0.34375 -1.34375q0.21875 -0.625 0.5 -1.140625q0.296875 -0.515625 0.625 -0.90625q0.328125 -0.390625 0.671875 -0.65625q0.34375 -0.28125 0.65625 -0.421875l0.3125 0.890625q-0.328125 0.25 -0.65625 0.671875q-0.328125 0.421875 -0.59375 1.0625q-0.25 0.625 -0.421875 1.46875q-0.15625 0.828125 -0.15625 1.90625l0 0.15625q0 1.078125 0.15625 1.921875q0.171875 0.84375 0.421875 1.46875q0.265625 0.625 0.59375 1.046875q0.328125 0.4375 0.65625 0.6875l-0.3125 0.875q-0.3125 -0.140625 -0.65625 -0.421875q-0.34375 -0.265625 -0.671875 -0.65625q-0.328125 -0.390625 -0.625 -0.90625q-0.28125 -0.5 -0.5 -1.125q-0.203125 -0.625 -0.34375 -1.34375q-0.125 -0.734375 -0.125 -1.5625l0 -0.125zm7.029297 -2.875l0.046875 0.765625q0.171875 -0.40625 0.484375 -0.640625q0.328125 -0.234375 0.796875 -0.234375q0.765625 0 1.0 0.671875q0.1875 -0.3125 0.46875 -0.484375q0.296875 -0.1875 0.703125 -0.1875q0.28125 0 0.53125 0.109375q0.25 0.09375 0.4375 0.328125q0.1875 0.234375 0.28125 0.609375q0.109375 0.359375 0.109375 0.875l0 4.53125l-1.484375 0l0 -4.53125q0 -0.1875 -0.046875 -0.296875q-0.03125 -0.125 -0.09375 -0.1875q-0.0625 -0.0625 -0.15625 -0.09375q-0.078125 -0.03125 -0.15625 -0.03125q-0.171875 0 -0.296875 0.09375q-0.109375 0.078125 -0.171875 0.203125l0 4.84375l-1.4375 0l0 -4.53125q0 -0.1875 -0.046875 -0.296875q-0.03125 -0.125 -0.09375 -0.1875q-0.0625 -0.0625 -0.140625 -0.09375q-0.078125 -0.03125 -0.171875 -0.03125q-0.1875 0 -0.3125 0.109375q-0.109375 0.109375 -0.171875 0.28125l0 4.75l-1.484375 0l0 -6.34375l1.40625 0z" fill-rule="nonzero"/><path fill="#000000" d="m122.08611 228.23631l0 1.734375l-0.828125 0l0 -1.734375l-1.734375 0l0 -0.828125l1.734375 0l0 -1.734375l0.828125 0l0 1.734375l1.734375 0l0 0.828125l-1.734375 0zm-0.390625 1.65625q0.828125 0 1.46875 -0.625q0.578125 -0.59375 0.578125 -1.421875q0 -0.828125 -0.578125 -1.421875q-0.640625 -0.625 -1.46875 -0.625q-0.828125 0 -1.46875 0.625q-0.578125 0.59375 -0.578125 1.421875q0 0.828125 0.578125 1.421875q0.640625 0.625 1.46875 0.625zm2.09375 -0.09375q-0.90625 0.921875 -2.09375 0.921875q-1.1875 0 -2.046875 -0.875q-0.828125 -0.8125 -0.828125 -2.0q0 -1.1875 0.78125 -1.953125q0.90625 -0.921875 2.09375 -0.921875q1.1875 0 2.046875 0.875q0.828125 0.8125 0.828125 2.0q0 1.1875 -0.78125 1.953125z" fill-rule="nonzero"/><path fill="#000000" d="m132.77167 223.87694l4.9375 0l0 1.328125l-1.65625 0l0 5.875l1.65625 0l0 1.328125l-4.9375 0l0 -1.328125l1.625 0l0 -5.875l-1.625 0l0 -1.328125zm9.669922 6.140625l1.609375 -6.140625l1.8125 0l-2.578125 8.53125l-1.671875 0l-2.578125 -8.53125l1.8125 0l1.59375 6.140625zm8.763672 -0.953125q0 0.8125 -0.125 1.53125q-0.125 0.703125 -0.359375 1.328125q-0.21875 0.625 -0.515625 1.140625q-0.28125 0.515625 -0.625 0.90625q-0.328125 0.40625 -0.6875 0.6875q-0.34375 0.28125 -0.6875 0.421875l-0.296875 -0.875q0.3125 -0.25 0.640625 -0.671875q0.328125 -0.421875 0.59375 -1.0625q0.265625 -0.625 0.421875 -1.46875q0.171875 -0.84375 0.171875 -1.921875l0 -0.15625q0 -1.078125 -0.171875 -1.921875q-0.171875 -0.84375 -0.4375 -1.46875q-0.265625 -0.640625 -0.59375 -1.0625q-0.3125 -0.4375 -0.625 -0.671875l0.296875 -0.875q0.34375 0.140625 0.6875 0.421875q0.359375 0.28125 0.6875 0.6875q0.34375 0.40625 0.625 0.921875q0.296875 0.5 0.515625 1.125q0.234375 0.625 0.359375 1.34375q0.125 0.71875 0.125 1.515625l0 0.125zm15.714844 -0.859375l-5.546875 0l0 -1.328125l5.546875 0l0 1.328125zm0 2.53125l-5.546875 0l0 -1.328125l5.546875 0l0 1.328125zm12.902344 -0.109375l-2.5625 0l-0.5 1.78125l-1.734375 0l2.78125 -8.53125l1.5 0l2.75 8.53125l-1.734375 0l-0.5 -1.78125zm-2.15625 -1.40625l1.765625 0l-0.875 -3.140625l-0.890625 3.140625zm10.404297 -0.546875l-3.5 0l0 2.40625l4.09375 0l0 1.328125l-5.75 0l0 -8.53125l5.734375 0l0 1.34375l-4.078125 0l0 2.140625l3.5 0l0 1.3125zm6.388672 1.5q0 -0.21875 -0.078125 -0.421875q-0.078125 -0.203125 -0.28125 -0.375q-0.1875 -0.171875 -0.5 -0.3125q-0.296875 -0.140625 -0.75 -0.265625q-0.5625 -0.15625 -1.078125 -0.375q-0.5 -0.234375 -0.890625 -0.546875q-0.375 -0.328125 -0.609375 -0.75q-0.234375 -0.4375 -0.234375 -1.0q0 -0.53125 0.21875 -0.96875q0.234375 -0.4375 0.640625 -0.75q0.40625 -0.3125 0.953125 -0.484375q0.546875 -0.171875 1.203125 -0.171875q0.65625 0 1.203125 0.203125q0.5625 0.1875 0.953125 0.546875q0.40625 0.34375 0.625 0.828125q0.234375 0.46875 0.234375 1.046875l-1.609375 0q-0.015625 -0.28125 -0.109375 -0.515625q-0.078125 -0.25 -0.265625 -0.421875q-0.171875 -0.171875 -0.4375 -0.265625q-0.265625 -0.109375 -0.625 -0.109375q-0.328125 0 -0.59375 0.09375q-0.25 0.078125 -0.421875 0.21875q-0.171875 0.140625 -0.265625 0.34375q-0.09375 0.1875 -0.09375 0.421875q0 0.234375 0.109375 0.4375q0.125 0.1875 0.359375 0.34375q0.234375 0.15625 0.546875 0.28125q0.328125 0.125 0.75 0.234375q0.578125 0.171875 1.0625 0.421875q0.5 0.25 0.84375 0.59375q0.359375 0.328125 0.5625 0.765625q0.203125 0.421875 0.203125 0.953125q0 0.5625 -0.234375 1.0q-0.21875 0.4375 -0.625 0.734375q-0.390625 0.296875 -0.953125 0.453125q-0.546875 0.15625 -1.1875 0.15625q-0.40625 0 -0.8125 -0.078125q-0.40625 -0.0625 -0.78125 -0.21875q-0.359375 -0.15625 -0.671875 -0.375q-0.3125 -0.234375 -0.546875 -0.53125q-0.234375 -0.3125 -0.375 -0.703125q-0.125 -0.390625 -0.125 -0.859375l1.625 0q0.015625 0.390625 0.125 0.671875q0.125 0.265625 0.34375 0.453125q0.234375 0.171875 0.53125 0.25q0.3125 0.078125 0.6875 0.078125q0.328125 0 0.578125 -0.0625q0.25 -0.078125 0.421875 -0.21875q0.1875 -0.140625 0.28125 -0.328125q0.09375 -0.1875 0.09375 -0.421875z" fill-rule="nonzero"/><path fill="#000000" d="m198.59784 235.15819l-0.484375 0.453125l0 1.296875l-1.09375 0l0 -6.0l1.09375 0l0 3.421875l0.328125 -0.375l1.15625 -1.28125l1.3125 0l-1.59375 1.765625l1.8125 2.46875l-1.328125 0l-1.203125 -1.75z" fill-rule="nonzero"/><path fill="#000000" d="m203.27362 228.93944q0 -0.828125 0.125 -1.546875q0.140625 -0.734375 0.34375 -1.34375q0.21875 -0.625 0.5 -1.140625q0.296875 -0.515625 0.625 -0.90625q0.328125 -0.390625 0.671875 -0.65625q0.34375 -0.28125 0.65625 -0.421875l0.3125 0.890625q-0.328125 0.25 -0.65625 0.671875q-0.328125 0.421875 -0.59375 1.0625q-0.25 0.625 -0.421875 1.46875q-0.15625 0.828125 -0.15625 1.90625l0 0.15625q0 1.078125 0.15625 1.921875q0.171875 0.84375 0.421875 1.46875q0.265625 0.625 0.59375 1.046875q0.328125 0.4375 0.65625 0.6875l-0.3125 0.875q-0.3125 -0.140625 -0.65625 -0.421875q-0.34375 -0.265625 -0.671875 -0.65625q-0.328125 -0.390625 -0.625 -0.90625q-0.28125 -0.5 -0.5 -1.125q-0.203125 -0.625 -0.34375 -1.34375q-0.125 -0.734375 -0.125 -1.5625l0 -0.125zm7.029297 -2.875l0.046875 0.765625q0.171875 -0.40625 0.484375 -0.640625q0.328125 -0.234375 0.796875 -0.234375q0.765625 0 1.0 0.671875q0.1875 -0.3125 0.46875 -0.484375q0.296875 -0.1875 0.703125 -0.1875q0.28125 0 0.53125 0.109375q0.25 0.09375 0.4375 0.328125q0.1875 0.234375 0.28125 0.609375q0.109375 0.359375 0.109375 0.875l0 4.53125l-1.484375 0l0 -4.53125q0 -0.1875 -0.046875 -0.296875q-0.03125 -0.125 -0.09375 -0.1875q-0.0625 -0.0625 -0.15625 -0.09375q-0.078125 -0.03125 -0.15625 -0.03125q-0.171875 0 -0.296875 0.09375q-0.109375 0.078125 -0.171875 0.203125l0 4.84375l-1.4375 0l0 -4.53125q0 -0.1875 -0.046875 -0.296875q-0.03125 -0.125 -0.09375 -0.1875q-0.0625 -0.0625 -0.140625 -0.09375q-0.078125 -0.03125 -0.171875 -0.03125q-0.1875 0 -0.3125 0.109375q-0.109375 0.109375 -0.171875 0.28125l0 4.75l-1.484375 0l0 -6.34375l1.40625 0zm10.513672 3.0q0 0.8125 -0.125 1.53125q-0.125 0.703125 -0.359375 1.328125q-0.21875 0.625 -0.515625 1.140625q-0.28125 0.515625 -0.625 0.90625q-0.328125 0.40625 -0.6875 0.6875q-0.34375 0.28125 -0.6875 0.421875l-0.296875 -0.875q0.3125 -0.25 0.640625 -0.671875q0.328125 -0.421875 0.59375 -1.0625q0.265625 -0.625 0.421875 -1.46875q0.171875 -0.84375 0.171875 -1.921875l0 -0.15625q0 -1.078125 -0.171875 -1.921875q-0.171875 -0.84375 -0.4375 -1.46875q-0.265625 -0.640625 -0.59375 -1.0625q-0.3125 -0.4375 -0.625 -0.671875l0.296875 -0.875q0.34375 0.140625 0.6875 0.421875q0.359375 0.28125 0.6875 0.6875q0.34375 0.40625 0.625 0.921875q0.296875 0.5 0.515625 1.125q0.234375 0.625 0.359375 1.34375q0.125 0.71875 0.125 1.515625l0 0.125z" fill-rule="nonzero"/><path fill="#000000" fill-opacity="0.0" d="m308.13858 113.943306l39.149597 0l0 29.574806l-39.149597 0z" fill-rule="evenodd"/><path fill="#000000" d="m317.6542 123.215706l6.578125 0l0 1.765625l-2.21875 0l0 7.8437576l2.21875 0l0 1.765625l-6.578125 0l0 -1.765625l2.15625 0l0 -7.8437576l-2.15625 0l0 -1.765625zm12.8828125 8.187508l2.140625 -8.187508l2.421875 0l-3.4375 11.375008l-2.234375 0l-3.4375 -11.375008l2.421875 0l2.125 8.187508z" fill-rule="nonzero"/><path fill="#000000" fill-opacity="0.0" d="m350.8071 66.49029l56.094482 0l0 29.574806l-56.094482 0z" fill-rule="evenodd"/><path fill="#000000" d="m368.50848 81.39716l0.0625 1.015625q0.25 -0.546875 0.671875 -0.859375q0.421875 -0.3125 1.03125 -0.3125q1.03125 0 1.34375 0.890625q0.25 -0.421875 0.625 -0.65625q0.390625 -0.234375 0.9375 -0.234375q0.390625 0 0.71875 0.140625q0.328125 0.140625 0.578125 0.453125q0.25 0.296875 0.375 0.796875q0.140625 0.484375 0.140625 1.1875l0 6.03125l-1.96875 0l0 -6.046875q0 -0.234375 -0.0625 -0.390625q-0.046875 -0.15625 -0.140625 -0.25q-0.078125 -0.09375 -0.1875 -0.125q-0.109375 -0.03125 -0.234375 -0.03125q-0.21875 0 -0.375 0.109375q-0.15625 0.09375 -0.25 0.28125l0 6.453125l-1.90625 0l0 -6.046875q0 -0.25 -0.046875 -0.40625q-0.046875 -0.15625 -0.140625 -0.234375q-0.078125 -0.09375 -0.1875 -0.125q-0.109375 -0.03125 -0.234375 -0.03125q-0.25 0 -0.40625 0.140625q-0.140625 0.140625 -0.234375 0.375l0 6.328125l-1.96875 0l0 -8.453125l1.859375 0zm13.2109375 -2.390625q0 0.40625 -0.109375 0.828125q-0.109375 0.421875 -0.3125 0.828125q-0.1875 0.40625 -0.453125 0.765625q-0.25 0.359375 -0.546875 0.640625l-1.0 -0.625q0.296875 -0.5 0.484375 -1.078125q0.203125 -0.59375 0.203125 -1.359375l0 -1.34375l1.734375 0l0 1.34375z" fill-rule="nonzero"/><path fill="#000000" d="m390.93036 92.97529q0 0.71875 -0.171875 1.28125q-0.171875 0.5625 -0.5 0.9375q-0.3125 0.375 -0.765625 0.578125q-0.453125 0.1875 -1.03125 0.1875q-0.5625 0 -1.03125 -0.1875q-0.453125 -0.203125 -0.78125 -0.578125q-0.3125 -0.375 -0.484375 -0.9375q-0.171875 -0.5625 -0.171875 -1.28125l0 -1.8125q0 -0.734375 0.171875 -1.296875q0.171875 -0.5625 0.484375 -0.9375q0.328125 -0.375 0.78125 -0.5625q0.453125 -0.203125 1.015625 -0.203125q0.578125 0 1.03125 0.203125q0.46875 0.1875 0.78125 0.5625q0.328125 0.375 0.5 0.9375q0.171875 0.5625 0.171875 1.296875l0 1.8125zm-3.484375 -0.625l2.015625 -1.515625q-0.015625 -0.765625 -0.265625 -1.125q-0.25 -0.375 -0.75 -0.375q-0.5 0 -0.75 0.390625q-0.25 0.390625 -0.25 1.203125l0 1.421875zm2.015625 -0.53125l-2.015625 1.5q0.03125 0.75 0.28125 1.109375q0.25 0.359375 0.734375 0.359375q0.515625 0 0.75 -0.390625q0.25 -0.390625 0.25 -1.21875l0 -1.359375z" fill-rule="nonzero"/><path fill="#000000" fill-opacity="0.0" d="m301.28818 164.80734l30.330719 0l0 29.228348l-30.330719 0z" fill-rule="evenodd"/><path fill="#000000" d="m313.71005 180.60965l-1.203125 1.3125l0 3.359375l-2.203125 0l0 -11.375l2.203125 0l0 5.203125l1.03125 -1.390625l2.765625 -3.8125l2.6875 0l-3.828125 5.03125l3.96875 6.34375l-2.609375 0l-2.8125 -4.671875z" fill-rule="nonzero"/><path fill="#cfe2f3" d="m352.1819 164.63097l53.35434 0l0 29.574814l-53.35434 0z" fill-rule="evenodd"/><path stroke="#000000" stroke-width="1.0" stroke-linejoin="round" stroke-linecap="butt" d="m352.1819 164.63097l53.35434 0l0 29.574814l-53.35434 0z" fill-rule="evenodd"/><path fill="#000000" d="m360.15063 185.27837l4.40625 -11.453125l1.640625 0l4.6875 11.453125l-1.734375 0l-1.328125 -3.46875l-4.796875 0l-1.25 3.46875l-1.625 0zm3.3125 -4.703125l3.890625 0l-1.203125 -3.171875q-0.546875 -1.453125 -0.8125 -2.375q-0.21875 1.09375 -0.609375 2.1875l-1.265625 3.359375zm8.65625 4.703125l0 -11.453125l8.28125 0l0 1.34375l-6.765625 0l0 3.515625l6.34375 0l0 1.34375l-6.34375 0l0 3.890625l7.03125 0l0 1.359375l-8.546875 0zm10.125 -3.6875l1.4375 -0.125q0.09375 0.859375 0.46875 1.421875q0.375 0.546875 1.15625 0.890625q0.78125 0.328125 1.75 0.328125q0.875 0 1.53125 -0.25q0.671875 -0.265625 0.984375 -0.703125q0.328125 -0.453125 0.328125 -0.984375q0 -0.546875 -0.3125 -0.9375q-0.3125 -0.40625 -1.03125 -0.6875q-0.453125 -0.171875 -2.03125 -0.546875q-1.578125 -0.390625 -2.21875 -0.71875q-0.8125 -0.4375 -1.21875 -1.0625q-0.40625 -0.640625 -0.40625 -1.4375q0 -0.859375 0.484375 -1.609375q0.5 -0.765625 1.4375 -1.15625q0.953125 -0.390625 2.109375 -0.390625q1.28125 0 2.25 0.421875q0.96875 0.40625 1.484375 1.203125q0.53125 0.796875 0.578125 1.796875l-1.453125 0.109375q-0.125 -1.078125 -0.796875 -1.625q-0.671875 -0.5625 -2.0 -0.5625q-1.375 0 -2.0 0.5q-0.625 0.5 -0.625 1.21875q0 0.609375 0.4375 1.015625q0.4375 0.390625 2.28125 0.8125q1.859375 0.421875 2.546875 0.734375q1.0 0.453125 1.46875 1.171875q0.484375 0.703125 0.484375 1.625q0 0.90625 -0.53125 1.71875q-0.515625 0.8125 -1.5 1.265625q-0.984375 0.453125 -2.203125 0.453125q-1.5625 0 -2.609375 -0.453125q-1.046875 -0.46875 -1.65625 -1.375q-0.59375 -0.90625 -0.625 -2.0625z" fill-rule="nonzero"/><path fill="#000000" fill-opacity="0.0" d="m331.6189 179.42152l20.566925 0" fill-rule="evenodd"/><path stroke="#000000" stroke-width="1.0" stroke-linejoin="round" stroke-linecap="butt" d="m331.6189 179.42152l14.566925 0" fill-rule="evenodd"/><path fill="#000000" stroke="#000000" stroke-width="1.0" stroke-linecap="butt" d="m346.18582 181.07326l4.538086 -1.6517334l-4.538086 -1.6517334z" fill-rule="evenodd"/><path fill="#000000" fill-opacity="0.0" d="m378.85434 136.337l0 28.283463" fill-rule="evenodd"/><path stroke="#000000" stroke-width="1.0" stroke-linejoin="round" stroke-linecap="butt" d="m378.85434 136.337l0 22.283463" fill-rule="evenodd"/><path fill="#000000" stroke="#000000" stroke-width="1.0" stroke-linecap="butt" d="m377.2026 158.62047l1.6517334 4.538101l1.6517334 -4.538101z" fill-rule="evenodd"/><path fill="#cfe2f3" d="m369.79922 128.73071l0 0c0 -4.200844 4.0541077 -7.6063004 9.055115 -7.6063004l0 0c5.001007 0 9.055115 3.4054565 9.055115 7.6063004l0 0c0 4.200836 -4.0541077 7.6062927 -9.055115 7.6062927l0 0c-5.001007 0 -9.055115 -3.4054565 -9.055115 -7.6062927z" fill-rule="evenodd"/><path fill="#000000" fill-opacity="0.0" d="m378.85434 121.12441l0 15.212593m-9.055115 -7.6062927l18.11023 0" fill-rule="evenodd"/><path fill="#000000" fill-opacity="0.0" d="m369.79922 128.73071l0 0c0 -4.200844 4.0541077 -7.6063004 9.055115 -7.6063004l0 0c5.001007 0 9.055115 3.4054565 9.055115 7.6063004l0 0c0 4.200836 -4.0541077 7.6062927 -9.055115 7.6062927l0 0c-5.001007 0 -9.055115 -3.4054565 -9.055115 -7.6062927z" fill-rule="evenodd"/><path stroke="#000000" stroke-width="1.0" stroke-linejoin="round" stroke-linecap="butt" d="m378.85434 121.12441l0 15.212593m-9.055115 -7.6062927l18.11023 0" fill-rule="evenodd"/><path stroke="#000000" stroke-width="1.0" stroke-linejoin="round" stroke-linecap="butt" d="m369.79922 128.73071l0 0c0 -4.200844 4.0541077 -7.6063004 9.055115 -7.6063004l0 0c5.001007 0 9.055115 3.4054565 9.055115 7.6063004l0 0c0 4.200836 -4.0541077 7.6062927 -9.055115 7.6062927l0 0c-5.001007 0 -9.055115 -3.4054565 -9.055115 -7.6062927z" fill-rule="evenodd"/><path fill="#000000" fill-opacity="0.0" d="m347.28818 128.73071l22.519684 0" fill-rule="evenodd"/><path stroke="#000000" stroke-width="1.0" stroke-linejoin="round" stroke-linecap="butt" d="m347.28818 128.7307l16.519684 0" fill-rule="evenodd"/><path fill="#000000" stroke="#000000" stroke-width="1.0" stroke-linecap="butt" d="m363.80786 130.38243l4.5381165 -1.6517334l-4.5381165 -1.6517258z" fill-rule="evenodd"/><path fill="#000000" fill-opacity="0.0" d="m378.85434 96.065094l0 25.070862" fill-rule="evenodd"/><path stroke="#000000" stroke-width="1.0" stroke-linejoin="round" stroke-linecap="butt" d="m378.85434 96.065094l0 19.07087" fill-rule="evenodd"/><path fill="#000000" stroke="#000000" stroke-width="1.0" stroke-linecap="butt" d="m377.2026 115.13596l1.6517334 4.5380936l1.6517334 -4.5380936z" fill-rule="evenodd"/><path fill="#000000" fill-opacity="0.0" d="m482.99606 66.49449l143.52756 0l0 29.574799l-143.52756 0z" fill-rule="evenodd"/><path fill="#000000" d="m516.4101 81.40137l0.0625 1.015625q0.25 -0.546875 0.671875 -0.859375q0.421875 -0.3125 1.03125 -0.3125q1.03125 0 1.34375 0.890625q0.25 -0.421875 0.625 -0.65625q0.390625 -0.234375 0.9375 -0.234375q0.390625 0 0.71875 0.140625q0.328125 0.140625 0.578125 0.453125q0.25 0.296875 0.375 0.796875q0.140625 0.484375 0.140625 1.1875l0 6.03125l-1.96875 0l0 -6.046875q0 -0.234375 -0.0625 -0.390625q-0.046875 -0.15625 -0.140625 -0.25q-0.078125 -0.09375 -0.1875 -0.125q-0.109375 -0.03125 -0.234375 -0.03125q-0.21875 0 -0.375 0.109375q-0.15625 0.09375 -0.25 0.28125l0 6.453125l-1.90625 0l0 -6.046875q0 -0.25 -0.046875 -0.40625q-0.046875 -0.15625 -0.140625 -0.234375q-0.078125 -0.09375 -0.1875 -0.125q-0.109375 -0.03125 -0.234375 -0.03125q-0.25 0 -0.40625 0.140625q-0.140625 0.140625 -0.234375 0.375l0 6.328125l-1.96875 0l0 -8.453125l1.859375 0zm13.2109375 -2.390625q0 0.40625 -0.109375 0.828125q-0.109375 0.421875 -0.3125 0.828125q-0.1875 0.40625 -0.453125 0.765625q-0.25 0.359375 -0.546875 0.640625l-1.0 -0.625q0.296875 -0.5 0.484375 -1.078125q0.203125 -0.59375 0.203125 -1.359375l0 -1.34375l1.734375 0l0 1.34375z" fill-rule="nonzero"/><path fill="#000000" d="m537.44135 95.85449l-1.46875 0l0 -5.8125l-1.90625 0.6875l0 -1.265625l3.296875 -1.1875l0.078125 0l0 7.578125z" fill-rule="nonzero"/><path fill="#000000" d="m548.1799 84.24512l-7.390625 0l0 -1.78125l7.390625 0l0 1.78125zm0 3.375l-7.390625 0l0 -1.78125l7.390625 0l0 1.78125zm3.6796875 -2.390625q0 -1.109375 0.15625 -2.078125q0.171875 -0.96875 0.453125 -1.796875q0.296875 -0.828125 0.6875 -1.5q0.390625 -0.6875 0.8125 -1.203125q0.4375 -0.53125 0.890625 -0.890625q0.453125 -0.359375 0.890625 -0.5625l0.421875 1.1875q-0.4375 0.34375 -0.875 0.90625q-0.4375 0.5625 -0.796875 1.40625q-0.34375 0.84375 -0.5625 1.96875q-0.21875 1.109375 -0.21875 2.546875l0 0.203125q0 1.4375 0.21875 2.5625q0.21875 1.109375 0.5625 1.953125q0.359375 0.84375 0.796875 1.40625q0.4375 0.578125 0.875 0.921875l-0.421875 1.171875q-0.4375 -0.203125 -0.890625 -0.578125q-0.453125 -0.359375 -0.890625 -0.875q-0.421875 -0.515625 -0.8125 -1.203125q-0.390625 -0.671875 -0.6875 -1.5q-0.28125 -0.828125 -0.453125 -1.796875q-0.15625 -0.96875 -0.15625 -2.078125l0 -0.171875zm9.3515625 -3.828125l0.0625 1.015625q0.25 -0.546875 0.671875 -0.859375q0.421875 -0.3125 1.03125 -0.3125q1.03125 0 1.34375 0.890625q0.25 -0.421875 0.625 -0.65625q0.390625 -0.234375 0.9375 -0.234375q0.390625 0 0.71875 0.140625q0.328125 0.140625 0.578125 0.453125q0.25 0.296875 0.375 0.796875q0.140625 0.484375 0.140625 1.1875l0 6.03125l-1.96875 0l0 -6.046875q0 -0.234375 -0.0625 -0.390625q-0.046875 -0.15625 -0.140625 -0.25q-0.078125 -0.09375 -0.1875 -0.125q-0.109375 -0.03125 -0.234375 -0.03125q-0.21875 0 -0.375 0.109375q-0.15625 0.09375 -0.25 0.28125l0 6.453125l-1.90625 0l0 -6.046875q0 -0.25 -0.046875 -0.40625q-0.046875 -0.15625 -0.140625 -0.234375q-0.078125 -0.09375 -0.1875 -0.125q-0.109375 -0.03125 -0.234375 -0.03125q-0.25 0 -0.40625 0.140625q-0.140625 0.140625 -0.234375 0.375l0 6.328125l-1.96875 0l0 -8.453125l1.859375 0z" fill-rule="nonzero"/><path fill="#000000" d="m573.2033 84.29199l0 2.3125l-1.09375 0l0 -2.3125l-2.3125 0l0 -1.09375l2.3125 0l0 -2.3125l1.09375 0l0 2.3125l2.3125 0l0 1.09375l-2.3125 0zm-0.515625 2.21875q1.109375 0 1.953125 -0.84375q0.78125 -0.78125 0.78125 -1.890625q0 -1.109375 -0.78125 -1.890625q-0.84375 -0.84375 -1.953125 -0.84375q-1.109375 0 -1.953125 0.84375q-0.78125 0.78125 -0.78125 1.890625q0 1.109375 0.78125 1.890625q0.84375 0.84375 1.953125 0.84375zm2.796875 -0.125q-1.21875 1.21875 -2.796875 1.21875q-1.578125 0 -2.734375 -1.15625q-1.09375 -1.09375 -1.09375 -2.671875q0 -1.578125 1.03125 -2.609375q1.21875 -1.21875 2.796875 -1.21875q1.578125 0 2.734375 1.15625q1.09375 1.09375 1.09375 2.671875q0 1.578125 -1.03125 2.609375z" fill-rule="nonzero"/><path fill="#000000" d="m581.4533 79.32324l0 2.078125l3.15625 0l0 1.59375l-3.15625 0l0 3.640625q0 0.453125 0.09375 0.765625q0.109375 0.3125 0.296875 0.5q0.203125 0.171875 0.484375 0.25q0.28125 0.078125 0.625 0.078125q0.25 0 0.5 -0.015625q0.265625 -0.03125 0.5 -0.0625q0.25 -0.03125 0.453125 -0.0625q0.203125 -0.046875 0.359375 -0.09375l0.203125 1.5q-0.21875 0.125 -0.53125 0.234375q-0.296875 0.09375 -0.640625 0.15625q-0.34375 0.0625 -0.71875 0.09375q-0.375 0.046875 -0.734375 0.046875q-0.6875 0 -1.265625 -0.1875q-0.5625 -0.1875 -0.96875 -0.578125q-0.390625 -0.390625 -0.609375 -0.984375q-0.21875 -0.59375 -0.21875 -1.4375l0 -3.84375l-1.9375 0l0 -1.59375l1.9375 0l0 -2.078125l2.171875 0zm11.3984375 6.078125q0 1.0625 -0.171875 2.03125q-0.171875 0.953125 -0.46875 1.78125q-0.296875 0.828125 -0.703125 1.515625q-0.390625 0.6875 -0.84375 1.21875q-0.4375 0.53125 -0.90625 0.90625q-0.46875 0.375 -0.90625 0.578125l-0.421875 -1.171875q0.4375 -0.328125 0.875 -0.90625q0.4375 -0.5625 0.78125 -1.40625q0.359375 -0.84375 0.578125 -1.96875q0.21875 -1.125 0.21875 -2.5625l0 -0.203125q0 -1.4375 -0.234375 -2.5625q-0.21875 -1.125 -0.578125 -1.96875q-0.34375 -0.84375 -0.78125 -1.40625q-0.4375 -0.578125 -0.859375 -0.90625l0.421875 -1.171875q0.4375 0.203125 0.90625 0.578125q0.46875 0.375 0.90625 0.90625q0.453125 0.53125 0.84375 1.21875q0.40625 0.6875 0.703125 1.515625q0.296875 0.828125 0.46875 1.78125q0.171875 0.953125 0.171875 2.03125l0 0.171875z" fill-rule="nonzero"/><path fill="#000000" fill-opacity="0.0" d="m477.00314 164.80734l30.330719 0l0 29.228348l-30.330719 0z" fill-rule="evenodd"/><path fill="#000000" d="m489.42502 180.60965l-1.203125 1.3125l0 3.359375l-2.203125 0l0 -11.375l2.203125 0l0 5.203125l1.03125 -1.390625l2.765625 -3.8125l2.6875 0l-3.828125 5.03125l3.96875 6.34375l-2.609375 0l-2.8125 -4.671875z" fill-rule="nonzero"/><path fill="#cfe2f3" d="m527.89685 164.63097l53.35431 0l0 29.574814l-53.35431 0z" fill-rule="evenodd"/><path stroke="#000000" stroke-width="1.0" stroke-linejoin="round" stroke-linecap="butt" d="m527.89685 164.63097l53.35431 0l0 29.574814l-53.35431 0z" fill-rule="evenodd"/><path fill="#000000" d="m535.8656 185.27837l4.40625 -11.453125l1.640625 0l4.6875 11.453125l-1.734375 0l-1.328125 -3.46875l-4.796875 0l-1.25 3.46875l-1.625 0zm3.3125 -4.703125l3.890625 0l-1.203125 -3.171875q-0.546875 -1.453125 -0.8125 -2.375q-0.21875 1.09375 -0.609375 2.1875l-1.265625 3.359375zm8.65625 4.703125l0 -11.453125l8.28125 0l0 1.34375l-6.765625 0l0 3.515625l6.34375 0l0 1.34375l-6.34375 0l0 3.890625l7.03125 0l0 1.359375l-8.546875 0zm10.125 -3.6875l1.4375 -0.125q0.09375 0.859375 0.46875 1.421875q0.375 0.546875 1.15625 0.890625q0.78125 0.328125 1.75 0.328125q0.875 0 1.53125 -0.25q0.671875 -0.265625 0.984375 -0.703125q0.328125 -0.453125 0.328125 -0.984375q0 -0.546875 -0.3125 -0.9375q-0.3125 -0.40625 -1.03125 -0.6875q-0.453125 -0.171875 -2.03125 -0.546875q-1.578125 -0.390625 -2.21875 -0.71875q-0.8125 -0.4375 -1.21875 -1.0625q-0.40625 -0.640625 -0.40625 -1.4375q0 -0.859375 0.484375 -1.609375q0.5 -0.765625 1.4375 -1.15625q0.953125 -0.390625 2.109375 -0.390625q1.28125 0 2.25 0.421875q0.96875 0.40625 1.484375 1.203125q0.53125 0.796875 0.578125 1.796875l-1.453125 0.109375q-0.125 -1.078125 -0.796875 -1.625q-0.671875 -0.5625 -2.0 -0.5625q-1.375 0 -2.0 0.5q-0.625 0.5 -0.625 1.21875q0 0.609375 0.4375 1.015625q0.4375 0.390625 2.28125 0.8125q1.859375 0.421875 2.546875 0.734375q1.0 0.453125 1.46875 1.171875q0.484375 0.703125 0.484375 1.625q0 0.90625 -0.53125 1.71875q-0.515625 0.8125 -1.5 1.265625q-0.984375 0.453125 -2.203125 0.453125q-1.5625 0 -2.609375 -0.453125q-1.046875 -0.46875 -1.65625 -1.375q-0.59375 -0.90625 -0.625 -2.0625z" fill-rule="nonzero"/><path fill="#000000" fill-opacity="0.0" d="m507.33386 179.42152l20.566956 0" fill-rule="evenodd"/><path stroke="#000000" stroke-width="1.0" stroke-linejoin="round" stroke-linecap="butt" d="m507.33386 179.42152l14.566956 0" fill-rule="evenodd"/><path fill="#000000" stroke="#000000" stroke-width="1.0" stroke-linecap="butt" d="m521.9008 181.07326l4.538086 -1.6517334l-4.538086 -1.6517334z" fill-rule="evenodd"/><path fill="#000000" fill-opacity="0.0" d="m554.5693 136.337l0 28.283463" fill-rule="evenodd"/><path stroke="#000000" stroke-width="1.0" stroke-linejoin="round" stroke-linecap="butt" d="m554.56934 136.337l0 22.283463" fill-rule="evenodd"/><path fill="#000000" stroke="#000000" stroke-width="1.0" stroke-linecap="butt" d="m552.9176 158.62047l1.6517334 4.538101l1.6517334 -4.538101z" fill-rule="evenodd"/><path fill="#cfe2f3" d="m545.51416 128.73071l0 0c0 -4.200844 4.054138 -7.6063004 9.055115 -7.6063004l0 0c5.0010376 0 9.055115 3.4054565 9.055115 7.6063004l0 0c0 4.200836 -4.054077 7.6062927 -9.055115 7.6062927l0 0c-5.0009766 0 -9.055115 -3.4054565 -9.055115 -7.6062927z" fill-rule="evenodd"/><path fill="#000000" fill-opacity="0.0" d="m554.5693 121.12441l0 15.212593m-9.055115 -7.6062927l18.11023 0" fill-rule="evenodd"/><path fill="#000000" fill-opacity="0.0" d="m545.51416 128.73071l0 0c0 -4.200844 4.054138 -7.6063004 9.055115 -7.6063004l0 0c5.0010376 0 9.055115 3.4054565 9.055115 7.6063004l0 0c0 4.200836 -4.054077 7.6062927 -9.055115 7.6062927l0 0c-5.0009766 0 -9.055115 -3.4054565 -9.055115 -7.6062927z" fill-rule="evenodd"/><path stroke="#000000" stroke-width="1.0" stroke-linejoin="round" stroke-linecap="butt" d="m554.5693 121.12441l0 15.212593m-9.055115 -7.6062927l18.11023 0" fill-rule="evenodd"/><path stroke="#000000" stroke-width="1.0" stroke-linejoin="round" stroke-linecap="butt" d="m545.51416 128.73071l0 0c0 -4.200844 4.054138 -7.6063004 9.055115 -7.6063004l0 0c5.0010376 0 9.055115 3.4054565 9.055115 7.6063004l0 0c0 4.200836 -4.054077 7.6062927 -9.055115 7.6062927l0 0c-5.0009766 0 -9.055115 -3.4054565 -9.055115 -7.6062927z" fill-rule="evenodd"/><path fill="#000000" fill-opacity="0.0" d="m554.7598 96.06929l-0.18896484 25.07087" fill-rule="evenodd"/><path stroke="#000000" stroke-width="1.0" stroke-linejoin="round" stroke-linecap="butt" d="m554.7598 96.06929l-0.1437378 19.071037" fill-rule="evenodd"/><path fill="#000000" stroke="#000000" stroke-width="1.0" stroke-linecap="butt" d="m552.9644 115.12788l1.6174927 4.550415l1.685852 -4.5255203z" fill-rule="evenodd"/><path fill="#000000" fill-opacity="0.0" d="m581.25116 179.41837l20.566956 0" fill-rule="evenodd"/><path stroke="#000000" stroke-width="1.0" stroke-linejoin="round" stroke-linecap="butt" d="m581.25116 179.41837l14.566956 0" fill-rule="evenodd"/><path fill="#000000" stroke="#000000" stroke-width="1.0" stroke-linecap="butt" d="m595.8181 181.0701l4.538086 -1.6517334l-4.538086 -1.6517334z" fill-rule="evenodd"/><path fill="#000000" fill-opacity="0.0" d="m601.80786 164.63097l30.33075 0l0 29.574814l-30.33075 0z" fill-rule="evenodd"/><path fill="#000000" d="m617.2662 174.74712l0 2.078125l3.15625 0l0 1.59375l-3.15625 0l0 3.640625q0 0.453125 0.09375 0.765625q0.109375 0.3125 0.296875 0.5q0.203125 0.171875 0.484375 0.25q0.28125 0.078125 0.625 0.078125q0.25 0 0.5 -0.015625q0.265625 -0.03125 0.5 -0.0625q0.25 -0.03125 0.453125 -0.0625q0.203125 -0.046875 0.359375 -0.09375l0.203125 1.5q-0.21875 0.125 -0.53125 0.234375q-0.296875 0.09375 -0.640625 0.15625q-0.34375 0.0625 -0.71875 0.09375q-0.375 0.046875 -0.734375 0.046875q-0.6875 0 -1.265625 -0.1875q-0.5625 -0.1875 -0.96875 -0.578125q-0.390625 -0.390625 -0.609375 -0.984375q-0.21875 -0.59375 -0.21875 -1.4375l0 -3.84375l-1.9375 0l0 -1.59375l1.9375 0l0 -2.078125l2.171875 0z" fill-rule="nonzero"/><path fill="#000000" fill-opacity="0.0" d="m356.92993 212.88818l237.16534 0l0 29.574814l-237.16534 0z" fill-rule="evenodd"/><path fill="#000000" d="m378.50967 224.51756l0 1.546875l2.375 0l0 1.203125l-2.375 0l0 2.71875q0 0.359375 0.078125 0.59375q0.078125 0.21875 0.21875 0.359375q0.15625 0.140625 0.359375 0.203125q0.21875 0.046875 0.46875 0.046875q0.1875 0 0.375 -0.015625q0.203125 -0.015625 0.375 -0.03125q0.1875 -0.03125 0.34375 -0.0625q0.15625 -0.03125 0.265625 -0.0625l0.15625 1.125q-0.171875 0.09375 -0.40625 0.171875q-0.21875 0.0625 -0.484375 0.109375q-0.25 0.0625 -0.53125 0.078125q-0.265625 0.03125 -0.546875 0.03125q-0.515625 0 -0.9375 -0.140625q-0.421875 -0.140625 -0.734375 -0.421875q-0.296875 -0.296875 -0.46875 -0.734375q-0.15625 -0.453125 -0.15625 -1.078125l0 -2.890625l-1.453125 0l0 -1.203125l1.453125 0l0 -1.546875l1.625 0zm17.058594 3.6875l-5.546875 0l0 -1.328125l5.546875 0l0 1.328125zm0 2.53125l-5.546875 0l0 -1.328125l5.546875 0l0 1.328125zm12.902344 -0.109375l-2.5625 0l-0.5 1.78125l-1.734375 0l2.78125 -8.53125l1.5 0l2.75 8.53125l-1.734375 0l-0.5 -1.78125zm-2.15625 -1.40625l1.765625 0l-0.875 -3.140625l-0.890625 3.140625zm10.404297 -0.546875l-3.5 0l0 2.40625l4.09375 0l0 1.328125l-5.75 0l0 -8.53125l5.734375 0l0 1.34375l-4.078125 0l0 2.140625l3.5 0l0 1.3125zm6.388672 1.5q0 -0.21875 -0.078125 -0.421875q-0.078125 -0.203125 -0.28125 -0.375q-0.1875 -0.171875 -0.5 -0.3125q-0.296875 -0.140625 -0.75 -0.265625q-0.5625 -0.15625 -1.078125 -0.375q-0.5 -0.234375 -0.890625 -0.546875q-0.375 -0.328125 -0.609375 -0.75q-0.234375 -0.4375 -0.234375 -1.0q0 -0.53125 0.21875 -0.96875q0.234375 -0.4375 0.640625 -0.75q0.40625 -0.3125 0.953125 -0.484375q0.546875 -0.171875 1.203125 -0.171875q0.65625 0 1.203125 0.203125q0.5625 0.1875 0.953125 0.546875q0.40625 0.34375 0.625 0.828125q0.234375 0.46875 0.234375 1.046875l-1.609375 0q-0.015625 -0.28125 -0.109375 -0.515625q-0.078125 -0.25 -0.265625 -0.421875q-0.171875 -0.171875 -0.4375 -0.265625q-0.265625 -0.109375 -0.625 -0.109375q-0.328125 0 -0.59375 0.09375q-0.25 0.078125 -0.421875 0.21875q-0.171875 0.140625 -0.265625 0.34375q-0.09375 0.1875 -0.09375 0.421875q0 0.234375 0.109375 0.4375q0.125 0.1875 0.359375 0.34375q0.234375 0.15625 0.546875 0.28125q0.328125 0.125 0.75 0.234375q0.578125 0.171875 1.0625 0.421875q0.5 0.25 0.84375 0.59375q0.359375 0.328125 0.5625 0.765625q0.203125 0.421875 0.203125 0.953125q0 0.5625 -0.234375 1.0q-0.21875 0.4375 -0.625 0.734375q-0.390625 0.296875 -0.953125 0.453125q-0.546875 0.15625 -1.1875 0.15625q-0.40625 0 -0.8125 -0.078125q-0.40625 -0.0625 -0.78125 -0.21875q-0.359375 -0.15625 -0.671875 -0.375q-0.3125 -0.234375 -0.546875 -0.53125q-0.234375 -0.3125 -0.375 -0.703125q-0.125 -0.390625 -0.125 -0.859375l1.625 0q0.015625 0.390625 0.125 0.671875q0.125 0.265625 0.34375 0.453125q0.234375 0.171875 0.53125 0.25q0.3125 0.078125 0.6875 0.078125q0.328125 0 0.578125 -0.0625q0.25 -0.078125 0.421875 -0.21875q0.1875 -0.140625 0.28125 -0.328125q0.09375 -0.1875 0.09375 -0.421875z" fill-rule="nonzero"/><path fill="#000000" d="m427.246 235.15819l-0.484375 0.453125l0 1.296875l-1.09375 0l0 -6.0l1.09375 0l0 3.421875l0.328125 -0.375l1.15625 -1.28125l1.3125 0l-1.59375 1.765625l1.8125 2.46875l-1.328125 0l-1.203125 -1.75z" fill-rule="nonzero"/><path fill="#000000" d="m431.92178 228.93944q0 -0.828125 0.125 -1.546875q0.140625 -0.734375 0.34375 -1.34375q0.21875 -0.625 0.5 -1.140625q0.296875 -0.515625 0.625 -0.90625q0.328125 -0.390625 0.671875 -0.65625q0.34375 -0.28125 0.65625 -0.421875l0.3125 0.890625q-0.328125 0.25 -0.65625 0.671875q-0.328125 0.421875 -0.59375 1.0625q-0.25 0.625 -0.421875 1.46875q-0.15625 0.828125 -0.15625 1.90625l0 0.15625q0 1.078125 0.15625 1.921875q0.171875 0.84375 0.421875 1.46875q0.265625 0.625 0.59375 1.046875q0.328125 0.4375 0.65625 0.6875l-0.3125 0.875q-0.3125 -0.140625 -0.65625 -0.421875q-0.34375 -0.265625 -0.671875 -0.65625q-0.328125 -0.390625 -0.625 -0.90625q-0.28125 -0.5 -0.5 -1.125q-0.203125 -0.625 -0.34375 -1.34375q-0.125 -0.734375 -0.125 -1.5625l0 -0.125zm7.029297 -2.875l0.046875 0.765625q0.171875 -0.40625 0.484375 -0.640625q0.328125 -0.234375 0.796875 -0.234375q0.765625 0 1.0 0.671875q0.1875 -0.3125 0.46875 -0.484375q0.296875 -0.1875 0.703125 -0.1875q0.28125 0 0.53125 0.109375q0.25 0.09375 0.4375 0.328125q0.1875 0.234375 0.28125 0.609375q0.109375 0.359375 0.109375 0.875l0 4.53125l-1.484375 0l0 -4.53125q0 -0.1875 -0.046875 -0.296875q-0.03125 -0.125 -0.09375 -0.1875q-0.0625 -0.0625 -0.15625 -0.09375q-0.078125 -0.03125 -0.15625 -0.03125q-0.171875 0 -0.296875 0.09375q-0.109375 0.078125 -0.171875 0.203125l0 4.84375l-1.4375 0l0 -4.53125q0 -0.1875 -0.046875 -0.296875q-0.03125 -0.125 -0.09375 -0.1875q-0.0625 -0.0625 -0.140625 -0.09375q-0.078125 -0.03125 -0.171875 -0.03125q-0.1875 0 -0.3125 0.109375q-0.109375 0.109375 -0.171875 0.28125l0 4.75l-1.484375 0l0 -6.34375l1.40625 0z" fill-rule="nonzero"/><path fill="#000000" d="m455.1503 228.23631l0 1.734375l-0.828125 0l0 -1.734375l-1.734375 0l0 -0.828125l1.734375 0l0 -1.734375l0.828125 0l0 1.734375l1.734375 0l0 0.828125l-1.734375 0zm-0.390625 1.65625q0.828125 0 1.46875 -0.625q0.578125 -0.59375 0.578125 -1.421875q0 -0.828125 -0.578125 -1.421875q-0.640625 -0.625 -1.46875 -0.625q-0.828125 0 -1.46875 0.625q-0.578125 0.59375 -0.578125 1.421875q0 0.828125 0.578125 1.421875q0.640625 0.625 1.46875 0.625zm2.09375 -0.09375q-0.90625 0.921875 -2.09375 0.921875q-1.1875 0 -2.046875 -0.875q-0.828125 -0.8125 -0.828125 -2.0q0 -1.1875 0.78125 -1.953125q0.90625 -0.921875 2.09375 -0.921875q1.1875 0 2.046875 0.875q0.828125 0.8125 0.828125 2.0q0 1.1875 -0.78125 1.953125z" fill-rule="nonzero"/><path fill="#000000" d="m468.52335 224.51756l0 1.546875l2.375 0l0 1.203125l-2.375 0l0 2.71875q0 0.359375 0.078125 0.59375q0.078125 0.21875 0.21875 0.359375q0.15625 0.140625 0.359375 0.203125q0.21875 0.046875 0.46875 0.046875q0.1875 0 0.375 -0.015625q0.203125 -0.015625 0.375 -0.03125q0.1875 -0.03125 0.34375 -0.0625q0.15625 -0.03125 0.265625 -0.0625l0.15625 1.125q-0.171875 0.09375 -0.40625 0.171875q-0.21875 0.0625 -0.484375 0.109375q-0.25 0.0625 -0.53125 0.078125q-0.265625 0.03125 -0.546875 0.03125q-0.515625 0 -0.9375 -0.140625q-0.421875 -0.140625 -0.734375 -0.421875q-0.296875 -0.296875 -0.46875 -0.734375q-0.15625 -0.453125 -0.15625 -1.078125l0 -2.890625l-1.453125 0l0 -1.203125l1.453125 0l0 -1.546875l1.625 0z" fill-rule="nonzero"/><path fill="#000000" d="m482.7538 228.23631l0 1.734375l-0.828125 0l0 -1.734375l-1.734375 0l0 -0.828125l1.734375 0l0 -1.734375l0.828125 0l0 1.734375l1.734375 0l0 0.828125l-1.734375 0zm-0.390625 1.65625q0.828125 0 1.46875 -0.625q0.578125 -0.59375 0.578125 -1.421875q0 -0.828125 -0.578125 -1.421875q-0.640625 -0.625 -1.46875 -0.625q-0.828125 0 -1.46875 0.625q-0.578125 0.59375 -0.578125 1.421875q0 0.828125 0.578125 1.421875q0.640625 0.625 1.46875 0.625zm2.09375 -0.09375q-0.90625 0.921875 -2.09375 0.921875q-1.1875 0 -2.046875 -0.875q-0.828125 -0.8125 -0.828125 -2.0q0 -1.1875 0.78125 -1.953125q0.90625 -0.921875 2.09375 -0.921875q1.1875 0 2.046875 0.875q0.828125 0.8125 0.828125 2.0q0 1.1875 -0.78125 1.953125z" fill-rule="nonzero"/><path fill="#000000" d="m496.12686 224.51756l0 1.546875l2.375 0l0 1.203125l-2.375 0l0 2.71875q0 0.359375 0.078125 0.59375q0.078125 0.21875 0.21875 0.359375q0.15625 0.140625 0.359375 0.203125q0.21875 0.046875 0.46875 0.046875q0.1875 0 0.375 -0.015625q0.203125 -0.015625 0.375 -0.03125q0.1875 -0.03125 0.34375 -0.0625q0.15625 -0.03125 0.265625 -0.0625l0.15625 1.125q-0.171875 0.09375 -0.40625 0.171875q-0.21875 0.0625 -0.484375 0.109375q-0.25 0.0625 -0.53125 0.078125q-0.265625 0.03125 -0.546875 0.03125q-0.515625 0 -0.9375 -0.140625q-0.421875 -0.140625 -0.734375 -0.421875q-0.296875 -0.296875 -0.46875 -0.734375q-0.15625 -0.453125 -0.15625 -1.078125l0 -2.890625l-1.453125 0l0 -1.203125l1.453125 0l0 -1.546875l1.625 0zm8.544922 4.546875q0 0.8125 -0.125 1.53125q-0.125 0.703125 -0.359375 1.328125q-0.21875 0.625 -0.515625 1.140625q-0.28125 0.515625 -0.625 0.90625q-0.328125 0.40625 -0.6875 0.6875q-0.34375 0.28125 -0.6875 0.421875l-0.296875 -0.875q0.3125 -0.25 0.640625 -0.671875q0.328125 -0.421875 0.59375 -1.0625q0.265625 -0.625 0.421875 -1.46875q0.171875 -0.84375 0.171875 -1.921875l0 -0.15625q0 -1.078125 -0.171875 -1.921875q-0.171875 -0.84375 -0.4375 -1.46875q-0.265625 -0.640625 -0.59375 -1.0625q-0.3125 -0.4375 -0.625 -0.671875l0.296875 -0.875q0.34375 0.140625 0.6875 0.421875q0.359375 0.28125 0.6875 0.6875q0.34375 0.40625 0.625 0.921875q0.296875 0.5 0.515625 1.125q0.234375 0.625 0.359375 1.34375q0.125 0.71875 0.125 1.515625l0 0.125zm15.714813 -0.859375l-5.546875 0l0 -1.328125l5.546875 0l0 1.328125zm0 2.53125l-5.546875 0l0 -1.328125l5.546875 0l0 1.328125zm12.902344 -0.109375l-2.5625 0l-0.5 1.78125l-1.734375 0l2.78125 -8.53125l1.5 0l2.75 8.53125l-1.734375 0l-0.5 -1.78125zm-2.15625 -1.40625l1.765625 0l-0.875 -3.140625l-0.890625 3.140625zm10.404297 -0.546875l-3.5 0l0 2.40625l4.09375 0l0 1.328125l-5.75 0l0 -8.53125l5.734375 0l0 1.34375l-4.078125 0l0 2.140625l3.5 0l0 1.3125zm6.388672 1.5q0 -0.21875 -0.078125 -0.421875q-0.078125 -0.203125 -0.28125 -0.375q-0.1875 -0.171875 -0.5 -0.3125q-0.296875 -0.140625 -0.75 -0.265625q-0.5625 -0.15625 -1.078125 -0.375q-0.5 -0.234375 -0.890625 -0.546875q-0.375 -0.328125 -0.609375 -0.75q-0.234375 -0.4375 -0.234375 -1.0q0 -0.53125 0.21875 -0.96875q0.234375 -0.4375 0.640625 -0.75q0.40625 -0.3125 0.953125 -0.484375q0.546875 -0.171875 1.203125 -0.171875q0.65625 0 1.203125 0.203125q0.5625 0.1875 0.953125 0.546875q0.40625 0.34375 0.625 0.828125q0.234375 0.46875 0.234375 1.046875l-1.609375 0q-0.015625 -0.28125 -0.109375 -0.515625q-0.078125 -0.25 -0.265625 -0.421875q-0.171875 -0.171875 -0.4375 -0.265625q-0.265625 -0.109375 -0.625 -0.109375q-0.328125 0 -0.59375 0.09375q-0.25 0.078125 -0.421875 0.21875q-0.171875 0.140625 -0.265625 0.34375q-0.09375 0.1875 -0.09375 0.421875q0 0.234375 0.109375 0.4375q0.125 0.1875 0.359375 0.34375q0.234375 0.15625 0.546875 0.28125q0.328125 0.125 0.75 0.234375q0.578125 0.171875 1.0625 0.421875q0.5 0.25 0.84375 0.59375q0.359375 0.328125 0.5625 0.765625q0.203125 0.421875 0.203125 0.953125q0 0.5625 -0.234375 1.0q-0.21875 0.4375 -0.625 0.734375q-0.390625 0.296875 -0.953125 0.453125q-0.546875 0.15625 -1.1875 0.15625q-0.40625 0 -0.8125 -0.078125q-0.40625 -0.0625 -0.78125 -0.21875q-0.359375 -0.15625 -0.671875 -0.375q-0.3125 -0.234375 -0.546875 -0.53125q-0.234375 -0.3125 -0.375 -0.703125q-0.125 -0.390625 -0.125 -0.859375l1.625 0q0.015625 0.390625 0.125 0.671875q0.125 0.265625 0.34375 0.453125q0.234375 0.171875 0.53125 0.25q0.3125 0.078125 0.6875 0.078125q0.328125 0 0.578125 -0.0625q0.25 -0.078125 0.421875 -0.21875q0.1875 -0.140625 0.28125 -0.328125q0.09375 -0.1875 0.09375 -0.421875z" fill-rule="nonzero"/><path fill="#000000" d="m552.06433 235.15819l-0.484375 0.453125l0 1.296875l-1.09375 0l0 -6.0l1.09375 0l0 3.421875l0.328125 -0.375l1.15625 -1.28125l1.3125 0l-1.59375 1.765625l1.8125 2.46875l-1.328125 0l-1.203125 -1.75z" fill-rule="nonzero"/><path fill="#000000" d="m556.7401 228.93944q0 -0.828125 0.125 -1.546875q0.140625 -0.734375 0.34375 -1.34375q0.21875 -0.625 0.5 -1.140625q0.296875 -0.515625 0.625 -0.90625q0.328125 -0.390625 0.671875 -0.65625q0.34375 -0.28125 0.65625 -0.421875l0.3125 0.890625q-0.328125 0.25 -0.65625 0.671875q-0.328125 0.421875 -0.59375 1.0625q-0.25 0.625 -0.421875 1.46875q-0.15625 0.828125 -0.15625 1.90625l0 0.15625q0 1.078125 0.15625 1.921875q0.171875 0.84375 0.421875 1.46875q0.265625 0.625 0.59375 1.046875q0.328125 0.4375 0.65625 0.6875l-0.3125 0.875q-0.3125 -0.140625 -0.65625 -0.421875q-0.34375 -0.265625 -0.671875 -0.65625q-0.328125 -0.390625 -0.625 -0.90625q-0.28125 -0.5 -0.5 -1.125q-0.203125 -0.625 -0.34375 -1.34375q-0.125 -0.734375 -0.125 -1.5625l0 -0.125zm7.029297 -2.875l0.046875 0.765625q0.171875 -0.40625 0.484375 -0.640625q0.328125 -0.234375 0.796875 -0.234375q0.765625 0 1.0 0.671875q0.1875 -0.3125 0.46875 -0.484375q0.296875 -0.1875 0.703125 -0.1875q0.28125 0 0.53125 0.109375q0.25 0.09375 0.4375 0.328125q0.1875 0.234375 0.28125 0.609375q0.109375 0.359375 0.109375 0.875l0 4.53125l-1.484375 0l0 -4.53125q0 -0.1875 -0.046875 -0.296875q-0.03125 -0.125 -0.09375 -0.1875q-0.0625 -0.0625 -0.15625 -0.09375q-0.078125 -0.03125 -0.15625 -0.03125q-0.171875 0 -0.296875 0.09375q-0.109375 0.078125 -0.171875 0.203125l0 4.84375l-1.4375 0l0 -4.53125q0 -0.1875 -0.046875 -0.296875q-0.03125 -0.125 -0.09375 -0.1875q-0.0625 -0.0625 -0.140625 -0.09375q-0.078125 -0.03125 -0.171875 -0.03125q-0.1875 0 -0.3125 0.109375q-0.109375 0.109375 -0.171875 0.28125l0 4.75l-1.484375 0l0 -6.34375l1.40625 0zm10.513672 3.0q0 0.8125 -0.125 1.53125q-0.125 0.703125 -0.359375 1.328125q-0.21875 0.625 -0.515625 1.140625q-0.28125 0.515625 -0.625 0.90625q-0.328125 0.40625 -0.6875 0.6875q-0.34375 0.28125 -0.6875 0.421875l-0.296875 -0.875q0.3125 -0.25 0.640625 -0.671875q0.328125 -0.421875 0.59375 -1.0625q0.265625 -0.625 0.421875 -1.46875q0.171875 -0.84375 0.171875 -1.921875l0 -0.15625q0 -1.078125 -0.171875 -1.921875q-0.171875 -0.84375 -0.4375 -1.46875q-0.265625 -0.640625 -0.59375 -1.0625q-0.3125 -0.4375 -0.625 -0.671875l0.296875 -0.875q0.34375 0.140625 0.6875 0.421875q0.359375 0.28125 0.6875 0.6875q0.34375 0.40625 0.625 0.921875q0.296875 0.5 0.515625 1.125q0.234375 0.625 0.359375 1.34375q0.125 0.71875 0.125 1.515625l0 0.125z" fill-rule="nonzero"/><path fill="#000000" fill-opacity="0.0" d="m405.53622 179.41837l48.581665 0l0 -50.677155l91.38681 0" fill-rule="evenodd"/><path stroke="#000000" stroke-width="1.0" stroke-linejoin="round" stroke-linecap="butt" d="m405.53622 179.41837l48.581696 0l0 -50.67717l85.38678 0" fill-rule="evenodd"/><path fill="#000000" stroke="#000000" stroke-width="1.0" stroke-linecap="butt" d="m539.5047 130.39293l4.538086 -1.6517334l-4.538086 -1.6517258z" fill-rule="evenodd"/><path fill="#000000" fill-opacity="0.0" d="m369.7921 4.2530184l180.28345 0l0 29.574802l-180.28345 0z" fill-rule="evenodd"/><path fill="#000000" d="m437.31668 20.241768l-3.65625 0l0 3.53125l-1.65625 0l0 -8.531249l5.765625 0l0 1.343749l-4.109375 0l0 2.3125l3.65625 0l0 1.34375zm1.6230469 0.296875q0 -0.6875 0.1875 -1.265625q0.203125 -0.59375 0.578125 -1.03125q0.390625 -0.4375 0.9375 -0.671875q0.5625 -0.25 1.28125 -0.25q0.71875 0 1.265625 0.25q0.5625 0.234375 0.9375 0.671875q0.390625 0.4375 0.59375 1.03125q0.203125 0.578125 0.203125 1.265625l0 0.125q0 0.703125 -0.203125 1.296875q-0.203125 0.578125 -0.59375 1.015625q-0.375 0.4375 -0.9375 0.6875q-0.546875 0.234375 -1.25 0.234375q-0.71875 0 -1.28125 -0.234375q-0.5625 -0.25 -0.953125 -0.6875q-0.375 -0.4375 -0.578125 -1.015625q-0.1875 -0.59375 -0.1875 -1.296875l0 -0.125zm1.625 0.125q0 0.40625 0.078125 0.75q0.078125 0.34375 0.234375 0.609375q0.171875 0.265625 0.421875 0.421875q0.265625 0.140625 0.640625 0.140625q0.359375 0 0.609375 -0.140625q0.265625 -0.15625 0.421875 -0.421875q0.15625 -0.265625 0.234375 -0.609375q0.078125 -0.34375 0.078125 -0.75l0 -0.125q0 -0.375 -0.078125 -0.71875q-0.078125 -0.359375 -0.234375 -0.609375q-0.15625 -0.265625 -0.421875 -0.421875q-0.25 -0.15625 -0.625 -0.15625q-0.359375 0 -0.625 0.15625q-0.25 0.15625 -0.421875 0.421875q-0.15625 0.25 -0.234375 0.609375q-0.078125 0.34375 -0.078125 0.71875l0 0.125zm10.341797 -3.34375q0.375 0 0.6875 0.046875q0.3125 0.046875 0.5 0.109375l-0.234375 1.625q-0.328125 -0.078125 -0.671875 -0.109375q-0.328125 -0.046875 -0.625 -0.046875q-0.6875 0 -1.109375 0.265625q-0.40625 0.265625 -0.609375 0.75l0 3.8125l-1.625 0l0 -6.34375l1.515625 0l0.078125 1.046875q0.375 -0.546875 0.90625 -0.84375q0.546875 -0.3125 1.1875 -0.3125zm2.4824219 3.234375q0 -0.71875 0.171875 -1.3125q0.1875 -0.609375 0.515625 -1.03125q0.34375 -0.421875 0.8125 -0.65625q0.484375 -0.234375 1.078125 -0.234375q0.5625 0 0.953125 0.1875q0.40625 0.1875 0.6875 0.53125l0.0625 -0.609375l1.484375 0l0 6.140625q0 0.640625 -0.21875 1.140625q-0.21875 0.515625 -0.625 0.859375q-0.390625 0.34375 -0.953125 0.515625q-0.546875 0.1875 -1.21875 0.1875q-0.28125 0 -0.609375 -0.0625q-0.328125 -0.0625 -0.65625 -0.1875q-0.3125 -0.109375 -0.609375 -0.3125q-0.28125 -0.1875 -0.484375 -0.453125l0.734375 -0.984375q0.3125 0.34375 0.703125 0.53125q0.390625 0.1875 0.84375 0.1875q0.6875 0 1.0625 -0.375q0.390625 -0.359375 0.390625 -1.03125l0 -0.359375q-0.28125 0.3125 -0.671875 0.5q-0.375 0.171875 -0.890625 0.171875q-0.59375 0 -1.0625 -0.25q-0.46875 -0.25 -0.8125 -0.671875q-0.328125 -0.421875 -0.515625 -1.015625q-0.171875 -0.59375 -0.171875 -1.28125l0 -0.125zm1.640625 0.125q0 0.390625 0.078125 0.734375q0.078125 0.34375 0.234375 0.609375q0.171875 0.25 0.421875 0.40625q0.25 0.140625 0.609375 0.140625q0.421875 0 0.703125 -0.15625q0.28125 -0.171875 0.4375 -0.46875l0 -2.6875q-0.15625 -0.296875 -0.4375 -0.453125q-0.28125 -0.171875 -0.703125 -0.171875q-0.34375 0 -0.59375 0.15625q-0.25 0.15625 -0.421875 0.421875q-0.15625 0.25 -0.25 0.609375q-0.078125 0.34375 -0.078125 0.734375l0 0.125zm8.810547 3.21875q-0.734375 0 -1.34375 -0.234375q-0.59375 -0.25 -1.015625 -0.65625q-0.421875 -0.421875 -0.65625 -0.984375q-0.234375 -0.5625 -0.234375 -1.203125l0 -0.234375q0 -0.71875 0.21875 -1.3125q0.234375 -0.609375 0.640625 -1.046875q0.421875 -0.4375 0.984375 -0.671875q0.5625 -0.234375 1.21875 -0.234375q0.6875 0 1.21875 0.234375q0.546875 0.21875 0.90625 0.625q0.375 0.40625 0.5625 0.984375q0.203125 0.578125 0.203125 1.28125l0 0.6875l-4.296875 0q0.046875 0.3125 0.1875 0.59375q0.140625 0.265625 0.359375 0.453125q0.234375 0.1875 0.515625 0.296875q0.28125 0.109375 0.625 0.109375q0.25 0 0.484375 -0.046875q0.234375 -0.046875 0.453125 -0.140625q0.21875 -0.09375 0.40625 -0.21875q0.1875 -0.140625 0.328125 -0.328125l0.8125 0.890625q-0.15625 0.203125 -0.40625 0.421875q-0.234375 0.203125 -0.5625 0.375q-0.328125 0.15625 -0.734375 0.25q-0.40625 0.109375 -0.875 0.109375zm-0.203125 -5.265625q-0.265625 0 -0.5 0.09375q-0.21875 0.09375 -0.40625 0.28125q-0.171875 0.1875 -0.296875 0.4375q-0.109375 0.25 -0.15625 0.5625l2.671875 0l0 -0.125q-0.015625 -0.265625 -0.109375 -0.484375q-0.078125 -0.234375 -0.25 -0.40625q-0.15625 -0.171875 -0.40625 -0.265625q-0.234375 -0.09375 -0.546875 -0.09375zm8.873047 -1.3125q0.375 0 0.6875 0.046875q0.3125 0.046875 0.5 0.109375l-0.234375 1.625q-0.328125 -0.078125 -0.671875 -0.109375q-0.328125 -0.046875 -0.625 -0.046875q-0.6875 0 -1.109375 0.265625q-0.40625 0.265625 -0.609375 0.75l0 3.8125l-1.625 0l0 -6.34375l1.515625 0l0.078125 1.046875q0.375 -0.546875 0.90625 -0.84375q0.546875 -0.3125 1.1875 -0.3125zm5.357422 3.796875l0.1875 0.671875l1.6875 -4.359375l1.796875 0l-3.21875 7.296875q-0.109375 0.234375 -0.28125 0.515625q-0.15625 0.28125 -0.40625 0.515625q-0.25 0.25 -0.609375 0.40625q-0.359375 0.171875 -0.859375 0.171875q-0.109375 0 -0.21875 -0.015625q-0.09375 0 -0.1875 -0.015625q-0.09375 -0.015625 -0.1875 -0.046875q-0.09375 -0.015625 -0.203125 -0.046875l0.203125 -1.234375q0.109375 0 0.25 0q0.15625 0.015625 0.25 0.015625q0.203125 0 0.34375 -0.125q0.15625 -0.109375 0.25 -0.25q0.109375 -0.140625 0.171875 -0.265625q0.078125 -0.109375 0.09375 -0.109375l0.390625 -0.734375l-2.671875 -6.078125l1.78125 0l1.4375 3.6875zm6.138672 1.71875q0 -0.234375 0.078125 -0.421875q0.078125 -0.203125 0.21875 -0.34375q0.15625 -0.15625 0.359375 -0.234375q0.21875 -0.078125 0.484375 -0.078125q0.265625 0 0.46875 0.078125q0.21875 0.078125 0.359375 0.234375q0.140625 0.140625 0.21875 0.34375q0.078125 0.1875 0.078125 0.421875q0 0.21875 -0.078125 0.421875q-0.078125 0.1875 -0.21875 0.328125q-0.140625 0.140625 -0.359375 0.21875q-0.203125 0.09375 -0.46875 0.09375q-0.265625 0 -0.484375 -0.09375q-0.203125 -0.078125 -0.359375 -0.21875q-0.140625 -0.140625 -0.21875 -0.328125q-0.078125 -0.203125 -0.078125 -0.421875zm0 -5.0q0 -0.234375 0.078125 -0.421875q0.078125 -0.203125 0.21875 -0.34375q0.15625 -0.15625 0.359375 -0.234375q0.21875 -0.078125 0.484375 -0.078125q0.265625 0 0.46875 0.078125q0.21875 0.078125 0.359375 0.234375q0.140625 0.140625 0.21875 0.34375q0.078125 0.1875 0.078125 0.421875q0 0.21875 -0.078125 0.421875q-0.078125 0.1875 -0.21875 0.328125q-0.140625 0.140625 -0.359375 0.234375q-0.203125 0.078125 -0.46875 0.078125q-0.265625 0 -0.484375 -0.078125q-0.203125 -0.09375 -0.359375 -0.234375q-0.140625 -0.140625 -0.21875 -0.328125q-0.078125 -0.203125 -0.078125 -0.421875z" fill-rule="nonzero"/><path fill="#000000" d="m404.76883 45.429268l0.046875 0.765625q0.171875 -0.40625 0.484375 -0.640625q0.328125 -0.234375 0.796875 -0.234375q0.765625 0 1.0 0.671875q0.1875 -0.3125 0.46875 -0.484375q0.296875 -0.1875 0.703125 -0.1875q0.28125 0 0.53125 0.109375q0.25 0.09375 0.4375 0.328125q0.1875 0.234375 0.28125 0.609375q0.109375 0.359375 0.109375 0.875l0 4.53125l-1.484375 0l0 -4.53125q0 -0.1875 -0.046875 -0.296875q-0.03125 -0.125 -0.09375 -0.1875q-0.0625 -0.0625 -0.15625 -0.09375q-0.078125 -0.03125 -0.15625 -0.03125q-0.171875 0 -0.296875 0.09375q-0.109375 0.078125 -0.171875 0.203125l0 4.84375l-1.4375 0l0 -4.53125q0 -0.1875 -0.046875 -0.296875q-0.03125 -0.125 -0.09375 -0.1875q-0.0625 -0.0625 -0.140625 -0.09375q-0.078125 -0.03125 -0.171875 -0.03125q-0.1875 0 -0.3125 0.109375q-0.109375 0.109375 -0.171875 0.28125l0 4.75l-1.484375 0l0 -6.34375l1.40625 0zm9.904297 -1.78125q0 0.296875 -0.078125 0.625q-0.078125 0.3125 -0.234375 0.609375q-0.140625 0.296875 -0.34375 0.578125q-0.1875 0.265625 -0.421875 0.46875l-0.734375 -0.453125q0.21875 -0.390625 0.359375 -0.828125q0.140625 -0.4375 0.140625 -1.0l0 -1.015625l1.3125 0l0 1.015625zm16.324219 3.921875l-5.546875 0l0 -1.328125l5.546875 0l0 1.328125zm0 2.53125l-5.546875 0l0 -1.328125l5.546875 0l0 1.328125zm9.777344 -4.671875l0.046875 0.765625q0.171875 -0.40625 0.484375 -0.640625q0.328125 -0.234375 0.796875 -0.234375q0.765625 0 1.0 0.671875q0.1875 -0.3125 0.46875 -0.484375q0.296875 -0.1875 0.703125 -0.1875q0.28125 0 0.53125 0.109375q0.25 0.09375 0.4375 0.328125q0.1875 0.234375 0.28125 0.609375q0.109375 0.359375 0.109375 0.875l0 4.53125l-1.484375 0l0 -4.53125q0 -0.1875 -0.046875 -0.296875q-0.03125 -0.125 -0.09375 -0.1875q-0.0625 -0.0625 -0.15625 -0.09375q-0.078125 -0.03125 -0.15625 -0.03125q-0.171875 0 -0.296875 0.09375q-0.109375 0.078125 -0.171875 0.203125l0 4.84375l-1.4375 0l0 -4.53125q0 -0.1875 -0.046875 -0.296875q-0.03125 -0.125 -0.09375 -0.1875q-0.0625 -0.0625 -0.140625 -0.09375q-0.078125 -0.03125 -0.171875 -0.03125q-0.1875 0 -0.3125 0.109375q-0.109375 0.109375 -0.171875 0.28125l0 4.75l-1.484375 0l0 -6.34375l1.40625 0zm16.699219 8.75l-1.015625 0l0 -10.9375l1.015625 0l0 10.9375zm12.277344 -5.875q0 -0.828125 0.125 -1.546875q0.140625 -0.734375 0.34375 -1.34375q0.21875 -0.625 0.5 -1.140625q0.296875 -0.515625 0.625 -0.90625q0.328125 -0.390625 0.671875 -0.65625q0.34375 -0.28125 0.65625 -0.421875l0.3125 0.890625q-0.328125 0.25 -0.65625 0.671875q-0.328125 0.421875 -0.59375 1.0625q-0.25 0.625 -0.421875 1.46875q-0.15625 0.828125 -0.15625 1.90625l0 0.15625q0 1.078125 0.15625 1.921875q0.171875 0.84375 0.421875 1.46875q0.265625 0.625 0.59375 1.046875q0.328125 0.4375 0.65625 0.6875l-0.3125 0.875q-0.3125 -0.140625 -0.65625 -0.421875q-0.34375 -0.265625 -0.671875 -0.65625q-0.328125 -0.390625 -0.625 -0.90625q-0.28125 -0.5 -0.5 -1.125q-0.203125 -0.625 -0.34375 -1.34375q-0.125 -0.734375 -0.125 -1.5625l0 -0.125zm7.029297 -2.875l0.046875 0.765625q0.171875 -0.40625 0.484375 -0.640625q0.328125 -0.234375 0.796875 -0.234375q0.765625 0 1.0 0.671875q0.1875 -0.3125 0.46875 -0.484375q0.296875 -0.1875 0.703125 -0.1875q0.28125 0 0.53125 0.109375q0.25 0.09375 0.4375 0.328125q0.1875 0.234375 0.28125 0.609375q0.109375 0.359375 0.109375 0.875l0 4.53125l-1.484375 0l0 -4.53125q0 -0.1875 -0.046875 -0.296875q-0.03125 -0.125 -0.09375 -0.1875q-0.0625 -0.0625 -0.15625 -0.09375q-0.078125 -0.03125 -0.15625 -0.03125q-0.171875 0 -0.296875 0.09375q-0.109375 0.078125 -0.171875 0.203125l0 4.84375l-1.4375 0l0 -4.53125q0 -0.1875 -0.046875 -0.296875q-0.03125 -0.125 -0.09375 -0.1875q-0.0625 -0.0625 -0.140625 -0.09375q-0.078125 -0.03125 -0.171875 -0.03125q-0.1875 0 -0.3125 0.109375q-0.109375 0.109375 -0.171875 0.28125l0 4.75l-1.484375 0l0 -6.34375l1.40625 0z" fill-rule="nonzero"/><path fill="#000000" d="m492.97977 47.601143l0 1.734375l-0.828125 0l0 -1.734375l-1.734375 0l0 -0.828125l1.734375 0l0 -1.734375l0.828125 0l0 1.734375l1.734375 0l0 0.828125l-1.734375 0zm-0.390625 1.65625q0.828125 0 1.46875 -0.625q0.578125 -0.59375 0.578125 -1.421875q0 -0.828125 -0.578125 -1.421875q-0.640625 -0.625 -1.46875 -0.625q-0.828125 0 -1.46875 0.625q-0.578125 0.59375 -0.578125 1.421875q0 0.828125 0.578125 1.421875q0.640625 0.625 1.46875 0.625zm2.09375 -0.09375q-0.90625 0.921875 -2.09375 0.921875q-1.1875 0 -2.046875 -0.875q-0.828125 -0.8125 -0.828125 -2.0q0 -1.1875 0.78125 -1.953125q0.90625 -0.921875 2.09375 -0.921875q1.1875 0 2.046875 0.875q0.828125 0.8125 0.828125 2.0q0 1.1875 -0.78125 1.953125z" fill-rule="nonzero"/><path fill="#000000" d="m506.35278 43.882393l0 1.546875l2.375 0l0 1.203125l-2.375 0l0 2.71875q0 0.359375 0.078125 0.59375q0.078125 0.21875 0.21875 0.359375q0.15625 0.140625 0.359375 0.203125q0.21875 0.046875 0.46875 0.046875q0.1875 0 0.375 -0.015625q0.203125 -0.015625 0.375 -0.03125q0.1875 -0.03125 0.34375 -0.0625q0.15625 -0.03125 0.265625 -0.0625l0.15625 1.125q-0.171875 0.09375 -0.40625 0.171875q-0.21875 0.0625 -0.484375 0.109375q-0.25 0.0625 -0.53125 0.078125q-0.265625 0.03125 -0.546875 0.03125q-0.515625 0 -0.9375 -0.140625q-0.421875 -0.140625 -0.734375 -0.421875q-0.296875 -0.296875 -0.46875 -0.734375q-0.15625 -0.453125 -0.15625 -1.078125l0 -2.890625l-1.453125 0l0 -1.203125l1.453125 0l0 -1.546875l1.625 0zm8.544922 4.546875q0 0.8125 -0.125 1.53125q-0.125 0.703125 -0.359375 1.328125q-0.21875 0.625 -0.515625 1.140625q-0.28125 0.515625 -0.625 0.90625q-0.328125 0.40625 -0.6875 0.6875q-0.34375 0.28125 -0.6875 0.421875l-0.296875 -0.875q0.3125 -0.25 0.640625 -0.671875q0.328125 -0.421875 0.59375 -1.0625q0.265625 -0.625 0.421875 -1.46875q0.171875 -0.84375 0.171875 -1.921875l0 -0.15625q0 -1.078125 -0.171875 -1.921875q-0.171875 -0.84375 -0.4375 -1.46875q-0.265625 -0.640625 -0.59375 -1.0625q-0.3125 -0.4375 -0.625 -0.671875l0.296875 -0.875q0.34375 0.140625 0.6875 0.421875q0.359375 0.28125 0.6875 0.6875q0.34375 0.40625 0.625 0.921875q0.296875 0.5 0.515625 1.125q0.234375 0.625 0.359375 1.34375q0.125 0.71875 0.125 1.515625l0 0.125z" fill-rule="nonzero"/><path fill="#000000" fill-opacity="0.0" d="m412.763 149.84148l30.330688 0l0 29.574799l-30.330688 0z" fill-rule="evenodd"/><path fill="#000000" d="m428.2213 162.67023l0 2.078125l3.15625 0l0 1.59375l-3.15625 0l0 3.640625q0 0.453125 0.09375 0.765625q0.109375 0.3125 0.296875 0.5q0.203125 0.171875 0.484375 0.25q0.28125 0.078125 0.625 0.078125q0.25 0 0.5 -0.015625q0.265625 -0.03125 0.5 -0.0625q0.25 -0.03125 0.453125 -0.0625q0.203125 -0.046875 0.359375 -0.09375l0.203125 1.5q-0.21875 0.125 -0.53125 0.234375q-0.296875 0.09375 -0.640625 0.15625q-0.34375 0.0625 -0.71875 0.09375q-0.375 0.046875 -0.734375 0.046875q-0.6875 0 -1.265625 -0.1875q-0.5625 -0.1875 -0.96875 -0.578125q-0.390625 -0.390625 -0.609375 -0.984375q-0.21875 -0.59375 -0.21875 -1.4375l0 -3.84375l-1.9375 0l0 -1.59375l1.9375 0l0 -2.078125l2.171875 0z" fill-rule="nonzero"/><path fill="#000000" fill-opacity="0.0" d="m38.48819 10.136483l180.28346 0l0 29.574802l-180.28346 0z" fill-rule="evenodd"/><path fill="#000000" d="m102.9434 26.015858q0 0.828125 -0.21875 1.515625q-0.21875 0.6875 -0.625 1.1875q-0.40625 0.5 -1.0 0.78125q-0.578125 0.28125 -1.328125 0.28125q-0.734375 0 -1.3125 -0.28125q-0.5625 -0.28125 -0.96875 -0.78125q-0.390625 -0.5 -0.59375 -1.1875q-0.203125 -0.6875 -0.203125 -1.515625l0 -1.234375q0 -0.828125 0.203125 -1.515625q0.203125 -0.6875 0.59375 -1.1875q0.40625 -0.515625 0.96875 -0.796875q0.578125 -0.28125 1.3125 -0.28125q0.75 0 1.328125 0.28125q0.59375 0.28125 1.0 0.796875q0.40625 0.5 0.625 1.1875q0.21875 0.6875 0.21875 1.515625l0 1.234375zm-1.671875 -1.25q0 -0.53125 -0.09375 -0.96875q-0.078125 -0.4375 -0.265625 -0.75q-0.171875 -0.3125 -0.453125 -0.484375q-0.28125 -0.1875 -0.6875 -0.1875q-0.40625 0 -0.671875 0.1875q-0.265625 0.171875 -0.4375 0.484375q-0.15625 0.3125 -0.234375 0.75q-0.0625 0.4375 -0.0625 0.96875l0 1.25q0 0.515625 0.0625 0.953125q0.078125 0.4375 0.234375 0.765625q0.171875 0.328125 0.4375 0.515625q0.265625 0.171875 0.671875 0.171875q0.40625 0 0.6875 -0.171875q0.28125 -0.1875 0.453125 -0.5q0.1875 -0.328125 0.265625 -0.765625q0.09375 -0.453125 0.09375 -0.96875l0 -1.25zm7.529297 -1.5625q0.375 0 0.6875 0.046875q0.3125 0.046875 0.5 0.109375l-0.234375 1.625q-0.328125 -0.078125 -0.671875 -0.109375q-0.328125 -0.046875 -0.625 -0.046875q-0.6875 0 -1.109375 0.265625q-0.40625 0.265625 -0.609375 0.75l0 3.8125l-1.625 0l0 -6.34375l1.515625 0l0.078125 1.046875q0.375 -0.546875 0.90625 -0.84375q0.546875 -0.3125 1.1875 -0.3125zm3.0917969 0.109375l3.453125 0l0 5.015625l1.703125 0l0 1.328125l-5.15625 0l0 -1.328125l1.796875 0l0 -3.6875l-1.796875 0l0 -1.328125zm1.6875 -1.625q0 -0.1875 0.0625 -0.34375q0.0625 -0.15625 0.1875 -0.265625q0.125 -0.125 0.296875 -0.1875q0.171875 -0.0625 0.390625 -0.0625q0.421875 0 0.671875 0.25q0.265625 0.234375 0.265625 0.609375q0 0.390625 -0.265625 0.640625q-0.25 0.234375 -0.671875 0.234375q-0.21875 0 -0.390625 -0.0625q-0.171875 -0.0625 -0.296875 -0.171875q-0.125 -0.125 -0.1875 -0.28125q-0.0625 -0.171875 -0.0625 -0.359375zm4.904297 4.75q0 -0.71875 0.171875 -1.3125q0.1875 -0.609375 0.515625 -1.03125q0.34375 -0.421875 0.8125 -0.65625q0.484375 -0.234375 1.078125 -0.234375q0.5625 0 0.953125 0.1875q0.40625 0.1875 0.6875 0.53125l0.0625 -0.609375l1.484375 0l0 6.140625q0 0.640625 -0.21875 1.140625q-0.21875 0.515625 -0.625 0.859375q-0.390625 0.34375 -0.953125 0.515625q-0.546875 0.1875 -1.21875 0.1875q-0.28125 0 -0.609375 -0.0625q-0.328125 -0.0625 -0.65625 -0.1875q-0.3125 -0.109375 -0.609375 -0.3125q-0.28125 -0.1875 -0.484375 -0.453125l0.734375 -0.984375q0.3125 0.34375 0.703125 0.53125q0.390625 0.1875 0.84375 0.1875q0.6875 0 1.0625 -0.375q0.390625 -0.359375 0.390625 -1.03125l0 -0.359375q-0.28125 0.3125 -0.671875 0.5q-0.375 0.171875 -0.890625 0.171875q-0.59375 0 -1.0625 -0.25q-0.46875 -0.25 -0.8125 -0.671875q-0.328125 -0.421875 -0.515625 -1.015625q-0.171875 -0.59375 -0.171875 -1.28125l0 -0.125zm1.640625 0.125q0 0.390625 0.078125 0.734375q0.078125 0.34375 0.234375 0.609375q0.171875 0.25 0.421875 0.40625q0.25 0.140625 0.609375 0.140625q0.421875 0 0.703125 -0.15625q0.28125 -0.171875 0.4375 -0.46875l0 -2.6875q-0.15625 -0.296875 -0.4375 -0.453125q-0.28125 -0.171875 -0.703125 -0.171875q-0.34375 0 -0.59375 0.15625q-0.25 0.15625 -0.421875 0.421875q-0.15625 0.25 -0.25 0.609375q-0.078125 0.34375 -0.078125 0.734375l0 0.125zm6.169922 -3.25l3.4531174 0l0 5.015625l1.703125 0l0 1.328125l-5.1562424 0l0 -1.328125l1.7968674 0l0 -3.6875l-1.7968674 0l0 -1.328125zm1.6875 -1.625q0 -0.1875 0.06249237 -0.34375q0.0625 -0.15625 0.1875 -0.265625q0.125 -0.125 0.296875 -0.1875q0.171875 -0.0625 0.390625 -0.0625q0.421875 0 0.671875 0.25q0.265625 0.234375 0.265625 0.609375q0 0.390625 -0.265625 0.640625q-0.25 0.234375 -0.671875 0.234375q-0.21875 0 -0.390625 -0.0625q-0.171875 -0.0625 -0.296875 -0.171875q-0.125 -0.125 -0.1875 -0.28125q-0.06249237 -0.171875 -0.06249237 -0.359375zm6.5449142 1.625l0.109375 0.875q0.34375 -0.46875 0.828125 -0.71875q0.484375 -0.265625 1.078125 -0.265625q0.46875 0 0.859375 0.140625q0.40625 0.140625 0.703125 0.453125q0.296875 0.296875 0.453125 0.78125q0.15625 0.484375 0.15625 1.171875l0 3.90625l-1.625 0l0 -3.875q0 -0.375 -0.09375 -0.609375q-0.078125 -0.25 -0.234375 -0.390625q-0.15625 -0.140625 -0.390625 -0.203125q-0.21875 -0.0625 -0.5 -0.0625q-0.40625 0 -0.703125 0.171875q-0.296875 0.171875 -0.46875 0.46875l0 4.5l-1.640625 0l0 -6.34375l1.46875 0zm9.685547 6.34375q-0.046875 -0.125 -0.09375 -0.265625q-0.046875 -0.15625 -0.0625 -0.328125q-0.140625 0.140625 -0.328125 0.28125q-0.171875 0.125 -0.390625 0.21875q-0.203125 0.09375 -0.46875 0.15625q-0.25 0.0625 -0.546875 0.0625q-0.484375 0 -0.890625 -0.140625q-0.40625 -0.15625 -0.703125 -0.40625q-0.296875 -0.25 -0.46875 -0.59375q-0.15625 -0.34375 -0.15625 -0.765625q0 -1.0 0.75 -1.546875q0.75 -0.546875 2.234375 -0.546875l0.90625 0l0 -0.375q0 -0.453125 -0.296875 -0.71875q-0.296875 -0.265625 -0.859375 -0.265625q-0.5 0 -0.734375 0.21875q-0.234375 0.203125 -0.234375 0.5625l-1.625 0q0 -0.40625 0.171875 -0.765625q0.1875 -0.359375 0.53125 -0.640625q0.34375 -0.28125 0.828125 -0.4375q0.5 -0.15625 1.140625 -0.15625q0.578125 0 1.0625 0.140625q0.5 0.140625 0.859375 0.421875q0.375 0.265625 0.578125 0.6875q0.203125 0.421875 0.203125 0.96875l0 2.71875q0 0.5 0.0625 0.84375q0.0625 0.328125 0.1875 0.578125l0 0.09375l-1.65625 0zm-1.546875 -1.140625q0.25 0 0.453125 -0.0625q0.21875 -0.0625 0.390625 -0.15625q0.171875 -0.09375 0.28125 -0.203125q0.125 -0.125 0.203125 -0.25l0 -1.09375l-0.828125 0q-0.390625 0 -0.65625 0.078125q-0.265625 0.078125 -0.4375 0.21875q-0.171875 0.125 -0.265625 0.3125q-0.078125 0.171875 -0.078125 0.390625q0 0.328125 0.234375 0.546875q0.234375 0.21875 0.703125 0.21875zm5.138672 -7.859375l3.546875 0l0 7.671875l1.8125 0l0 1.328125l-5.359375 0l0 -1.328125l1.890625 0l0 -6.34375l-1.890625 0l0 -1.328125zm8.498047 8.0625q0 -0.234375 0.078125 -0.421875q0.078125 -0.203125 0.21875 -0.34375q0.15625 -0.15625 0.359375 -0.234375q0.21875 -0.078125 0.484375 -0.078125q0.265625 0 0.46875 0.078125q0.21875 0.078125 0.359375 0.234375q0.140625 0.140625 0.21875 0.34375q0.078125 0.1875 0.078125 0.421875q0 0.21875 -0.078125 0.421875q-0.078125 0.1875 -0.21875 0.328125q-0.140625 0.140625 -0.359375 0.21875q-0.203125 0.09375 -0.46875 0.09375q-0.265625 0 -0.484375 -0.09375q-0.203125 -0.078125 -0.359375 -0.21875q-0.140625 -0.140625 -0.21875 -0.328125q-0.078125 -0.203125 -0.078125 -0.421875zm0 -5.0q0 -0.234375 0.078125 -0.421875q0.078125 -0.203125 0.21875 -0.34375q0.15625 -0.15625 0.359375 -0.234375q0.21875 -0.078125 0.484375 -0.078125q0.265625 0 0.46875 0.078125q0.21875 0.078125 0.359375 0.234375q0.140625 0.140625 0.21875 0.34375q0.078125 0.1875 0.078125 0.421875q0 0.21875 -0.078125 0.421875q-0.078125 0.1875 -0.21875 0.328125q-0.140625 0.140625 -0.359375 0.234375q-0.203125 0.078125 -0.46875 0.078125q-0.265625 0 -0.484375 -0.078125q-0.203125 -0.09375 -0.359375 -0.234375q-0.140625 -0.140625 -0.21875 -0.328125q-0.078125 -0.203125 -0.078125 -0.421875z" fill-rule="nonzero"/></g></svg>